<svg width="58" height="41" viewBox="0 0 58 41" fill="none" xmlns="http://www.w3.org/2000/svg">
<path d="M6.06 37L3.432 33.316H2.448V37H1.068V28.6H2.448V32.032H3.42L5.82 28.6H7.512L4.644 32.656L7.776 37H6.06ZM12.2568 37.156C10.9848 37.156 9.92878 36.744 9.08878 35.92C8.24878 35.088 7.82878 34.048 7.82878 32.8C7.82878 31.552 8.24878 30.516 9.08878 29.692C9.92878 28.86 10.9848 28.444 12.2568 28.444C13.5288 28.444 14.5848 28.86 15.4248 29.692C16.2648 30.516 16.6848 31.552 16.6848 32.8C16.6848 33.616 16.4928 34.36 16.1088 35.032C15.7328 35.696 15.2048 36.216 14.5248 36.592C13.8528 36.968 13.0968 37.156 12.2568 37.156ZM10.0968 34.972C10.6728 35.548 11.3928 35.836 12.2568 35.836C13.1288 35.836 13.8488 35.548 14.4168 34.972C14.9928 34.388 15.2808 33.664 15.2808 32.8C15.2808 31.936 14.9928 31.216 14.4168 30.64C13.8488 30.056 13.1288 29.764 12.2568 29.764C11.3928 29.764 10.6728 30.056 10.0968 30.64C9.52078 31.216 9.23278 31.936 9.23278 32.8C9.23278 33.664 9.52078 34.388 10.0968 34.972ZM21.3908 28.6C21.9268 28.6 22.4108 28.72 22.8428 28.96C23.2828 29.2 23.6268 29.532 23.8748 29.956C24.1228 30.38 24.2468 30.852 24.2468 31.372C24.2468 32.164 23.9748 32.824 23.4308 33.352C22.8868 33.88 22.2068 34.144 21.3908 34.144H19.6628V37H18.2828V28.6H21.3908ZM21.3188 32.836C21.5428 32.836 21.7468 32.8 21.9308 32.728C22.1228 32.656 22.2868 32.556 22.4228 32.428C22.5588 32.3 22.6628 32.144 22.7348 31.96C22.8148 31.776 22.8548 31.58 22.8548 31.372C22.8548 31.092 22.7868 30.844 22.6508 30.628C22.5228 30.404 22.3428 30.228 22.1108 30.1C21.8788 29.972 21.6148 29.908 21.3188 29.908H19.6628V32.836H21.3188ZM29.8297 32.596C30.0617 32.724 30.2617 32.892 30.4297 33.1C30.5977 33.308 30.7257 33.54 30.8137 33.796C30.9097 34.052 30.9577 34.324 30.9577 34.612C30.9577 35.364 30.6737 35.976 30.1057 36.448C29.5377 36.912 28.8337 37.144 27.9937 37.144C27.4577 37.144 26.9697 37.04 26.5297 36.832C26.0977 36.624 25.7497 36.324 25.4857 35.932C25.2217 35.532 25.0817 35.076 25.0657 34.564H26.4097C26.4337 34.836 26.5177 35.076 26.6617 35.284C26.8057 35.484 26.9897 35.636 27.2137 35.74C27.4457 35.844 27.7057 35.896 27.9937 35.896C28.4577 35.896 28.8417 35.772 29.1457 35.524C29.4497 35.276 29.6017 34.952 29.6017 34.552C29.6017 34.16 29.4657 33.84 29.1937 33.592C28.9217 33.344 28.5697 33.22 28.1377 33.22H27.2497V32.044H28.1377C28.5217 32.044 28.8337 31.932 29.0737 31.708C29.3137 31.484 29.4337 31.196 29.4337 30.844C29.4337 30.484 29.2977 30.196 29.0257 29.98C28.7537 29.756 28.4097 29.644 27.9937 29.644C27.6017 29.644 27.2657 29.756 26.9857 29.98C26.7137 30.196 26.5577 30.48 26.5177 30.832H25.1977C25.2377 30.12 25.5217 29.544 26.0497 29.104C26.5857 28.664 27.2297 28.444 27.9817 28.444C28.7737 28.444 29.4337 28.664 29.9617 29.104C30.4977 29.536 30.7657 30.108 30.7657 30.82C30.7657 31.188 30.6817 31.528 30.5137 31.84C30.3537 32.152 30.1257 32.404 29.8297 32.596ZM38.3509 28.6H39.3469V37H37.9789V31.18L33.5749 37H32.6149V28.6H33.9949V34.36L38.3509 28.6ZM46.7177 28.6H48.0977V37H46.7177V33.34H42.8777V37H41.4977V28.6H42.8777V32.032H46.7177V28.6ZM55.9762 37L55.2442 35.176H51.5002L50.7802 37H49.3162L52.7002 28.6H53.9962L57.4642 37H55.9762ZM53.3602 30.4L51.9802 33.94H54.7642L53.3602 30.4Z" fill="white"/>
<path d="M25.8907 19.2941C26.6518 19.2941 27.2689 18.6771 27.2689 17.916C27.2689 17.1549 26.6518 16.5378 25.8907 16.5378C25.1296 16.5378 24.5126 17.1549 24.5126 17.916C24.5126 18.6771 25.1296 19.2941 25.8907 19.2941Z" fill="white"/>
<path d="M35.5377 19.2941C36.2988 19.2941 36.9158 18.6771 36.9158 17.916C36.9158 17.1549 36.2988 16.5378 35.5377 16.5378C34.7766 16.5378 34.1595 17.1549 34.1595 17.916C34.1595 18.6771 34.7766 19.2941 35.5377 19.2941Z" fill="white"/>
<path d="M38.294 3.4455H23.0104L22.4454 0.551397C22.4131 0.39341 22.3265 0.251722 22.2006 0.150997C22.0747 0.0502723 21.9175 -0.00311081 21.7563 0.000140184H19V1.37828H21.1912L23.8235 14.6085C23.8557 14.7664 23.9423 14.9081 24.0682 15.0089C24.1941 15.1096 24.3514 15.163 24.5126 15.1597H36.9159V13.7816H25.0776L24.5126 11.0253H36.9159C37.0751 11.0292 37.2309 10.9777 37.3565 10.8798C37.4821 10.7818 37.5699 10.6432 37.6049 10.4878L38.9831 4.28616C39.0062 4.18392 39.0056 4.07776 38.9815 3.97576C38.9574 3.87376 38.9103 3.7786 38.8439 3.69754C38.7774 3.61648 38.6933 3.55164 38.5981 3.50796C38.5028 3.46429 38.3988 3.44292 38.294 3.4455ZM36.3646 9.64714H24.2507L23.286 4.82364H37.4327L36.3646 9.64714Z" fill="white"/>
</svg>
