<svg width="160" height="82" viewBox="0 0 160 82" fill="none" xmlns="http://www.w3.org/2000/svg">
<path fill-rule="evenodd" clip-rule="evenodd" d="M104.938 58.6776C104.938 50.0835 109.654 42.5896 116.64 38.6424L118.736 39.0196L121.18 45.1052C121.134 45.1277 121.089 45.151 121.044 45.1742L121.585 46.1139L123.753 51.507L120.323 45.569C119.456 46.0754 118.643 46.666 117.896 47.3288L124.878 54.3083L125.739 56.4532L124.733 56.58L114.926 50.9197C114.404 51.7951 113.968 52.7275 113.63 53.7049L124.482 56.6121L122.327 56.8842L113.383 54.4881C113.101 55.4743 112.917 56.5006 112.841 57.5574H117.001L104.942 59.0812C104.939 58.9472 104.938 58.8124 104.938 58.6776V58.6776ZM124.793 43.8406L121.853 36.4943C123.792 35.9639 125.834 35.6807 127.942 35.6807C140.646 35.6807 150.946 45.9767 150.946 58.6776C150.946 71.3793 140.646 81.6753 127.942 81.6753C116.809 81.6753 107.523 73.7689 105.396 63.2667L113.661 62.2227L113.248 62.3327C113.511 63.3855 113.882 64.3941 114.352 65.3474L121.476 61.2349L123.578 60.9693L114.734 66.0736C115.269 67.0245 115.902 67.9112 116.621 68.7208L124.489 60.8538L125.819 60.6861L117.183 69.3195C117.953 70.0978 118.807 70.7935 119.731 71.3913L125.921 60.6732L129.509 60.2199V60.2183C129.908 60.1484 130.229 59.8628 130.457 59.4102C130.676 58.9761 130.698 58.5444 130.537 58.1897L129.235 54.935L134.872 45.1742C133.995 44.7249 133.069 44.3574 132.104 44.0837L129.212 54.8757L128.702 53.6046L131.308 43.8807C130.359 43.6665 129.376 43.5413 128.368 43.5148V52.7701L127.547 50.7191V43.5148C126.605 43.5397 125.685 43.6512 124.793 43.8406V43.8406ZM124.257 73.3597L127.547 61.0849V73.8099C126.415 73.7794 125.314 73.6253 124.257 73.3597ZM126.754 60.8722L123.466 73.139C122.4 72.8084 121.384 72.3631 120.432 71.8182L126.754 60.8722V60.8722ZM131.076 58.3783H143.112C143.114 58.4722 143.114 58.5668 143.114 58.6623C143.114 59.6429 143.021 60.6018 142.843 61.5302L131.076 58.3783V58.3783ZM143.075 57.5574H131.076L142.532 54.4881C142.814 55.4743 142.999 56.5006 143.075 57.5574ZM135.592 45.569C136.46 46.0754 137.272 46.666 138.018 47.3288L129.872 55.4735L135.592 45.569ZM140.55 50.2256C139.984 49.3838 139.337 48.6014 138.618 47.8905L130.452 56.0536L140.55 50.2256V50.2256ZM140.99 50.9197L130.863 56.7646L142.285 53.7049C141.946 52.7275 141.511 51.7951 140.99 50.9197V50.9197ZM142.666 62.3327L130.863 59.1711L141.564 65.3474C142.032 64.3941 142.405 63.3855 142.666 62.3327ZM115.366 50.2256C115.931 49.3838 116.578 48.6014 117.297 47.8905L125.462 56.0536L115.366 50.2256ZM130.452 59.882L141.181 66.0736C140.647 67.0245 140.013 67.9112 139.294 68.7208L130.452 59.882V59.882ZM138.733 69.3195L129.872 60.4622L136.183 71.3913C137.107 70.7935 137.961 70.0978 138.733 69.3195V69.3195ZM129.161 60.8722L135.483 71.8182C134.532 72.3631 133.515 72.8084 132.449 73.139L129.161 60.8722ZM128.368 73.8099V61.0849L131.658 73.3597C130.601 73.6253 129.5 73.7794 128.368 73.8099Z" fill="black"/>
<path fill-rule="evenodd" clip-rule="evenodd" d="M137.399 33.0751C137.468 32.9443 137.53 32.8168 137.585 32.6924C135.062 33.2966 132.425 34.1392 127.626 33.62C112.746 32.0103 103.357 44.4697 102.854 55.9308C103.461 55.8265 103.661 55.1886 104.259 55.0706C105.761 43.8221 115.989 34.8132 127.651 34.8132C131.412 34.8132 135.426 34.8132 137.399 33.0751V33.0751Z" fill="black"/>
<path fill-rule="evenodd" clip-rule="evenodd" d="M21.2494 56.6912C20.657 57.7842 20.9131 59.1419 21.8626 59.9443C23.1268 61.0124 25.0524 60.6569 25.8527 59.2085L27.275 56.6327L38.2071 53.7046C37.8684 52.7272 37.4334 51.7948 36.9117 50.9193L27.3978 56.4104L28.1659 55.0198L36.4718 50.2252C35.9067 49.3835 35.259 48.6011 34.5406 47.8902L29.0994 53.3291L30.5313 50.7372L33.941 47.3285C33.6031 47.0283 33.2507 46.7427 32.8863 46.4731L36.6909 39.585C42.8296 43.7143 46.8678 50.7244 46.8678 58.6773C46.8678 71.379 36.5689 81.675 23.8645 81.675C11.1592 81.675 0.860352 71.379 0.860352 58.6773C0.860352 45.9764 11.1592 35.6804 23.8645 35.6804C26.6762 35.6804 29.3707 36.1851 31.8613 37.1079L28.0744 44.0971C28.0583 44.0923 28.0423 44.0874 28.0263 44.0834L27.9725 44.2848L26.2901 47.3886L27.2308 43.8804C26.2813 43.667 25.298 43.541 24.2907 43.5145V51.079L23.4696 52.594V43.5145C22.4614 43.541 21.479 43.667 20.5294 43.8804L23.065 53.3411L22.4959 54.3907L19.7332 44.0834C18.7684 44.3571 17.8421 44.7246 16.9656 45.1739L22.3956 54.576L21.9365 55.4226L16.2457 45.5687C15.378 46.0751 14.5657 46.6656 13.8184 47.3293L21.9293 55.437L21.2494 56.6912ZM20.1795 73.3594L23.4696 61.0846V73.8095C22.337 73.7791 21.2366 73.625 20.1795 73.3594ZM22.6765 60.8719L19.3889 73.1387C18.3221 72.8081 17.306 72.3628 16.3548 71.8179L22.6765 60.8719ZM15.6533 71.391L21.9654 60.4619L13.1057 69.3191C13.8762 70.0975 14.7302 70.7932 15.6533 71.391ZM21.3851 59.8817L12.5438 68.7205C11.8246 67.9109 11.1905 67.0242 10.6568 66.0733L21.3851 59.8817ZM10.2739 65.3471L20.9741 59.1708L9.17104 62.3324C9.4327 63.3851 9.80433 64.3938 10.2739 65.3471ZM20.7614 58.378L8.99446 61.5299C8.81627 60.6015 8.72317 59.6426 8.72317 58.662C8.72317 58.5665 8.72398 58.4718 8.72558 58.378H20.7614ZM26.998 58.378H39.0347C39.0355 58.4718 39.0371 58.5665 39.0371 58.662C39.0371 59.6426 38.944 60.6015 38.7658 61.5299L26.998 58.378ZM38.997 57.5571H26.998L38.4544 54.4878C38.7369 55.474 38.9207 56.5003 38.997 57.5571ZM20.7614 57.5571H8.7625C8.83875 56.5003 9.02336 55.474 9.3051 54.4886L20.7614 57.5571ZM10.8478 50.9193C10.3269 51.7948 9.89102 52.7272 9.5523 53.7046L20.9741 56.7643L10.8478 50.9193ZM38.5892 62.3324L26.7853 59.1708L37.4856 65.3471C37.9551 64.3938 38.3267 63.3851 38.5892 62.3324ZM11.2877 50.2252C11.8535 49.3835 12.5013 48.6011 13.2197 47.8902L21.3851 56.0533L11.2877 50.2252ZM26.3752 59.8817L37.1027 66.0733C36.5689 67.0242 35.9356 67.9109 35.2164 68.7205L26.3752 59.8817ZM34.6546 69.3191L25.7941 60.4619L32.1061 71.391C33.03 70.7932 33.884 70.0975 34.6546 69.3191ZM25.0837 60.8719L31.4046 71.8179C30.4535 72.3636 29.4373 72.8081 28.3714 73.1387L25.0837 60.8719ZM24.2907 73.8095V61.0846L27.5808 73.3594C26.5237 73.625 25.4224 73.7791 24.2907 73.8095ZM22.3282 59.7718C21.4164 59.1483 21.1242 57.9366 21.6523 56.9665L38.7016 25.6636L42.2734 28.1038L25.4329 59.0239C24.8228 60.1433 23.3805 60.49 22.3282 59.7718Z" fill="black"/>
<path fill-rule="evenodd" clip-rule="evenodd" d="M63.1336 36.2529L53.6382 39.7082L54.4336 41.8924L52.8668 42.4629L52.9591 42.7141L54.5251 42.1436L54.6656 42.5304L53.0996 43.1009L53.1911 43.352L54.7571 42.7815L54.8983 43.1683L53.3316 43.7388L53.4231 43.99L54.9899 43.4195L55.1303 43.8062L53.5643 44.376L53.6558 44.6279L55.2218 44.0574L55.3631 44.4442L53.7963 45.0139L53.8878 45.2658L55.4546 44.6961L55.595 45.0821L54.0282 45.6526L54.1198 45.9038L55.6865 45.3341L55.827 45.7208L54.261 46.2906L54.3525 46.5417L55.9185 45.972L56.0598 46.3588L54.493 46.9285L54.5845 47.1797L56.1513 46.6099L56.2918 46.9967L54.7258 47.5664L54.8173 47.8176L56.3833 47.2479L56.5237 47.6346L54.9577 48.2044L55.0492 48.4555L56.616 47.8858L56.7565 48.2726L55.1897 48.8423L55.2812 49.0935L56.848 48.5237L56.9885 48.9105L55.4225 49.4802L55.514 49.7314L57.0799 49.1617L57.2212 49.5484L55.6544 50.1182L55.746 50.3693L57.3119 49.7996L57.9107 51.443L67.4062 47.9877L66.8074 46.3443L68.3934 45.7682L68.3019 45.5162L66.7159 46.0932L66.5754 45.7072L68.1606 45.1294L68.07 44.8783L66.4839 45.4552L66.3426 45.0693L67.9287 44.4915L67.8371 44.2403L66.2511 44.8173L66.1107 44.4305L67.6967 43.8536L67.6044 43.6024L66.0191 44.1794L65.8787 43.7926L67.4639 43.2156L67.3724 42.9645L65.7872 43.5414L65.6459 43.1546L67.2319 42.5777L67.1405 42.3265L65.5544 42.9035L65.4139 42.5167L66.9992 41.9398L66.9085 41.6886L65.3225 42.2656L65.1812 41.8788L66.7672 41.3018L66.6757 41.0507L65.0897 41.6276L64.9492 41.2408L66.5353 40.6639L66.4437 40.4127L64.8577 40.9897L64.7173 40.6029L66.3025 40.026L66.211 39.7748L64.6257 40.3518L64.4845 39.965L66.0705 39.388L65.979 39.1369L64.393 39.7138L64.2525 39.327L65.8385 38.7501L65.747 38.4989L64.161 39.0759L64.0205 38.6891L65.6058 38.1122L65.5143 37.861L63.9282 38.438L63.1336 36.2529ZM63.9282 38.438L64.0205 38.6891L54.5251 42.1436L54.4336 41.8924L63.9282 38.438V38.438ZM64.161 39.0759L54.6656 42.5304L54.7571 42.7815L64.2525 39.327L64.161 39.0759ZM64.393 39.7138L54.8983 43.1683L54.9899 43.4195L64.4845 39.965L64.393 39.7138ZM64.6257 40.3518L64.7173 40.6029L55.2218 44.0574L55.1303 43.8062L64.6257 40.3518ZM64.8577 40.9897L55.3631 44.4442L55.4546 44.6961L64.9492 41.2408L64.8577 40.9897ZM65.0897 41.6276L65.1812 41.8788L55.6865 45.3341L55.595 45.0821L65.0897 41.6276ZM65.3225 42.2656L55.827 45.7208L55.9185 45.972L65.4139 42.5167L65.3225 42.2656ZM65.5544 42.9035L65.6459 43.1546L56.1513 46.6099L56.0598 46.3588L65.5544 42.9035ZM65.7872 43.5414L56.2918 46.9967L56.3833 47.2479L65.8787 43.7926L65.7872 43.5414ZM66.0191 44.1794L66.1107 44.4305L56.616 47.8858L56.5237 47.6346L66.0191 44.1794V44.1794ZM66.2511 44.8173L56.7565 48.2726L56.848 48.5237L66.3426 45.0693L66.2511 44.8173ZM66.4839 45.4552L66.5754 45.7072L57.0799 49.1617L56.9885 48.9105L66.4839 45.4552ZM66.7159 46.0932L57.2212 49.5484L57.3119 49.7996L66.8074 46.3443L66.7159 46.0932Z" fill="black"/>
<path fill-rule="evenodd" clip-rule="evenodd" d="M57.9107 51.4431L67.4061 47.9878L68.3276 57.2864L63.3375 59.1015L57.9107 51.4431Z" fill="black"/>
<path d="M65.8794 36.9389L64.3521 32.7437L50.4672 37.7959L51.9945 41.9912L65.8794 36.9389Z" fill="black"/>
<path fill-rule="evenodd" clip-rule="evenodd" d="M84.0533 39.7014L74.5578 36.2461L73.7632 38.4311L72.1964 37.8606L72.105 38.1126L73.6717 38.6823L73.5304 39.0691L71.9645 38.4985L71.873 38.7505L73.4389 39.3202L73.2985 39.707L71.7317 39.1365L71.6402 39.3884L73.207 39.9582L73.0657 40.3449L71.4997 39.7744L71.4082 40.0264L72.9742 40.5961L72.8337 40.9829L71.2678 40.4123L71.1763 40.6643L72.7423 41.234L72.6018 41.6208L71.035 41.0503L70.9435 41.3022L72.5103 41.872L72.369 42.2587L70.803 41.689L70.7115 41.9402L72.2775 42.5099L72.137 42.8967L70.5703 42.3269L70.4788 42.5781L72.0455 43.1478L71.9051 43.5346L70.3383 42.9649L70.2468 43.216L71.8128 43.7858L71.6723 44.1725L70.1063 43.6028L70.0148 43.854L71.5808 44.4237L71.4403 44.8105L69.8744 44.2407L69.782 44.4919L71.3488 45.0616L71.2076 45.4484L69.6416 44.8787L69.5501 45.1298L71.1169 45.7004L70.9756 46.0863L69.4088 45.5166L69.3181 45.7678L70.8841 46.3383L70.2861 47.9809L79.7807 51.4362L80.3795 49.7928L81.9648 50.3697L82.0563 50.1186L80.4702 49.5416L80.6115 49.1548L82.1975 49.7318L82.289 49.4806L80.703 48.9037L80.8434 48.5169L82.4295 49.0938L82.521 48.8427L80.9358 48.2657L81.0762 47.879L82.6615 48.4559L82.7529 48.2048L81.1677 47.6278L81.3082 47.241L82.8942 47.818L82.9857 47.5668L81.3997 46.9899L81.5409 46.6031L83.1262 47.18L83.2177 46.9289L81.6317 46.3519L81.7729 45.9652L83.359 46.5421L83.4504 46.291L81.8644 45.7132L82.0049 45.3272L83.5909 45.9042L83.6824 45.653L82.0964 45.0753L82.2376 44.6885L83.8229 45.2662L83.9144 45.0143L82.3292 44.4373L82.4696 44.0506L84.0557 44.6283L84.1472 44.3764L82.5611 43.7994L82.7016 43.4126L84.2876 43.9896L84.3791 43.7384L82.7931 43.1615L82.9344 42.7747L84.5196 43.3516L84.6119 43.1005L83.0258 42.5235L83.1663 42.1376L84.7524 42.7137L84.8439 42.4626L83.2578 41.8856L84.0533 39.7014ZM83.2578 41.8856L83.1663 42.1376L73.6717 38.6823L73.7632 38.4311L83.2578 41.8856ZM83.0258 42.5235L73.5304 39.0691L73.4389 39.3202L82.9344 42.7747L83.0258 42.5235ZM82.7931 43.1615L73.2985 39.707L73.207 39.9582L82.7016 43.4126L82.7931 43.1615ZM82.5611 43.7994L82.4696 44.0506L72.9742 40.5961L73.0657 40.3449L82.5611 43.7994ZM82.3292 44.4373L72.8337 40.9829L72.7423 41.234L82.2376 44.6885L82.3292 44.4373ZM82.0964 45.0753L82.0049 45.3272L72.5103 41.872L72.6018 41.6208L82.0964 45.0753ZM81.8644 45.7132L72.369 42.2587L72.2775 42.5099L81.7729 45.9652L81.8644 45.7132ZM81.6317 46.3519L81.5409 46.6031L72.0455 43.1478L72.137 42.8967L81.6317 46.3519ZM81.3997 46.9899L71.9051 43.5346L71.8128 43.7858L81.3082 47.241L81.3997 46.9899V46.9899ZM81.1677 47.6278L81.0762 47.879L71.5808 44.4237L71.6723 44.1725L81.1677 47.6278ZM80.9358 48.2657L71.4403 44.8105L71.3488 45.0616L80.8434 48.5169L80.9358 48.2657V48.2657ZM80.703 48.9037L80.6115 49.1548L71.1169 45.7004L71.2076 45.4484L80.703 48.9037ZM80.4702 49.5416L70.9756 46.0863L70.8841 46.3383L80.3795 49.7928L80.4702 49.5416Z" fill="black"/>
<path fill-rule="evenodd" clip-rule="evenodd" d="M70.286 47.981L79.7807 51.4362L74.5088 59.1508L69.5187 57.3357L70.286 47.981Z" fill="black"/>
<path d="M85.7156 41.9911L87.243 37.7959L73.3581 32.7436L71.8307 36.9389L85.7156 41.9911Z" fill="black"/>
<path fill-rule="evenodd" clip-rule="evenodd" d="M60.2496 58.7383C60.2496 56.9946 61.6639 55.5815 63.4073 55.5815H79.7799V65.559H63.4073C61.6639 65.559 60.2496 64.1459 60.2496 62.4022V58.7383V58.7383Z" fill="black"/>
<path fill-rule="evenodd" clip-rule="evenodd" d="M85.1818 67.1845C88.8355 67.1845 91.7981 64.2227 91.7981 60.57C91.7981 56.9165 88.8355 53.9556 85.1818 53.9556C81.5281 53.9556 78.5655 56.9165 78.5655 60.57C78.5655 64.2227 81.5281 67.1845 85.1818 67.1845ZM85.1818 65.4977C87.9036 65.4977 90.1101 63.2911 90.1101 60.57C90.1101 57.849 87.9036 55.6423 85.1818 55.6423C82.4592 55.6423 80.2527 57.849 80.2527 60.57C80.2527 63.2911 82.4592 65.4977 85.1818 65.4977Z" fill="black"/>
<path d="M81.2817 55.5815H78.2565V57.1038H81.2817V55.5815Z" fill="black"/>
<path d="M81.0554 64.0366H78.0302V65.5588H81.0554V64.0366Z" fill="black"/>
<path fill-rule="evenodd" clip-rule="evenodd" d="M105.296 64.0288H90.5386V66.6487H106.076C105.767 65.7974 105.507 64.9227 105.296 64.0288ZM149.605 67.1856H159.124V69.8055H148.384C148.843 68.9622 149.251 68.0875 149.605 67.1856ZM107.5 69.8055C107.041 68.9622 106.633 68.0875 106.279 67.1856H78.0341V69.8055H107.5ZM149.807 66.6487C150.117 65.7974 150.377 64.9227 150.587 64.0288H159.629V66.6487H149.807Z" fill="black"/>
<path fill-rule="evenodd" clip-rule="evenodd" d="M90.5387 66.6488V64.0288H89.781L87.3177 66.6488H90.5387Z" fill="black"/>
<path fill-rule="evenodd" clip-rule="evenodd" d="M21.654 56.9657C21.125 57.9359 21.4164 59.1492 22.329 59.7719C23.3813 60.4908 24.8236 60.1434 25.4329 59.0256L41.1737 30.1541H45.045L45.0586 30.2094L53.4889 63.9244L53.5026 63.975L53.5186 64.0247C54.5356 67.0146 55.5854 68.9878 56.9957 70.3166C58.4309 71.6679 60.1044 72.2224 62.0179 72.6758L62.1865 72.7159L62.3599 72.7087L88.6164 71.6511L88.6814 71.6487L88.7456 71.639C93.1827 70.9979 95.7046 67.9759 96.3106 65.5855C96.415 65.1738 96.5009 64.6097 96.5731 63.9541L129.204 59.8312L129.203 59.824C129.816 59.7638 130.294 59.2663 130.294 58.6621C130.294 58.5473 130.277 58.4366 130.245 58.3315L130.247 58.3307L130.235 58.3018C130.228 58.2793 130.22 58.2569 130.211 58.2352C130.204 58.2183 130.196 58.2007 130.188 58.1838L121.428 36.344L121.42 36.3464L121.421 36.3432L87.6628 30.1637C86.9548 29.0258 86.2606 28.0669 85.6104 27.3776C86.6081 25.3033 83.1077 22.6104 81.2889 21.2109H81.2881V21.2101C81.0433 21.0216 80.829 20.8571 80.6596 20.7198C77.5076 18.1657 57.5415 4.30448 51.3587 16.5777C51.3442 16.6066 51.3298 16.6363 51.3145 16.6652H48.5277L52.8676 8.70502L49.2958 6.26562L43.9983 15.9815H41.7806V20.049L21.654 56.9657V56.9657ZM48.9443 35.337L55.9274 63.2608C56.8946 66.0934 57.7759 67.5811 58.7279 68.4783C59.6324 69.3296 60.7201 69.7621 62.4329 70.1786L88.447 69.1306C91.831 68.6171 93.5093 66.355 93.8617 64.9652C94.0632 64.1708 94.2125 62.2762 94.304 60.0792C94.3907 58.0081 94.4212 55.8175 94.4228 54.3811C93.2244 49.0449 91.2483 43.3806 89.1846 38.6711C88.1909 36.4042 87.1836 34.3732 86.2421 32.7178L85.5759 32.5983L85.5976 32.4779L65.8538 30.0056C65.1435 29.9687 64.4099 29.927 63.6522 29.8788L48.9443 35.337V35.337ZM83.5925 28.9271C83.5066 28.9608 83.4183 28.9945 83.3268 29.0274L83.7474 29.0828C83.6961 29.0298 83.6463 28.9801 83.5982 28.9327L83.5925 28.9271V28.9271ZM118.948 38.5989L89.4239 33.29C90.1109 34.618 90.8108 36.0888 91.4987 37.6584C93.633 42.5284 95.6822 48.4054 96.919 53.9687L96.9488 54.1035V54.2423C96.9488 55.6995 96.9191 58.0025 96.8284 60.1843C96.8235 60.2886 96.8195 60.3929 96.8147 60.4973L126.251 56.7788L118.948 38.5989V38.5989ZM62.3687 29.0371C56.7999 28.7995 46.867 26.1523 51.6813 17.4572C57.6996 6.5874 76.7138 18.652 79.7133 20.8795C79.8738 20.9991 80.0777 21.1427 80.3113 21.3072C83.786 23.7547 93.702 30.7398 62.3687 29.0371Z" fill="black"/>
<path fill-rule="evenodd" clip-rule="evenodd" d="M52.7031 17.5464C48.0164 25.0756 57.161 27.5495 62.3181 27.8448C93.2806 29.9648 80.9333 22.6859 78.612 20.9848C75.8878 18.9891 58.5617 8.13461 52.7031 17.5464Z" fill="black"/>
<path d="M88.634 28.8718C92.8495 29.5217 106.972 28.623 110.042 22.2324" stroke="black" stroke-width="1.59712" stroke-miterlimit="22.9256" stroke-linecap="round"/>
<path fill-rule="evenodd" clip-rule="evenodd" d="M103.73 31.8982C103.635 31.8789 103.558 31.8507 103.506 31.8137C103.329 31.6874 103.442 31.751 103.73 31.8982Z" fill="black" stroke="black" stroke-width="0.0532374" stroke-miterlimit="22.9256"/>
<path d="M104.424 26.9401C104.519 26.8738 104.959 26.5881 105.055 26.5205C105.086 26.6242 105.038 26.9146 104.596 27.2465C104.214 27.5336 103.993 27.6344 103.903 27.6564C104.366 27.5878 105.309 27.4994 105.633 27.6614C106.048 27.8688 106.048 28.0763 106.048 28.18C106.048 28.2837 105.919 28.5966 105.8 28.6823C105.633 28.8023 104.7 29.3209 103.766 29.4246C102.833 29.5283 103.875 29.6139 104.389 29.5283C105.011 29.4246 105.944 29.0097 106.359 29.0097C106.774 29.0097 106.878 29.1134 106.982 29.2171C107.085 29.3209 107.019 29.6455 106.913 29.7357C106.67 29.9432 106.567 30.1591 105.633 30.358C104.7 30.557 103.87 30.6692 103.351 30.6692C102.729 30.6692 104.893 30.9238 105.055 30.9382C105.529 30.9803 106.878 30.9803 107.085 31.084C107.216 31.1496 107.396 31.2915 107.189 31.4989C106.982 31.7063 106.83 31.7792 106.359 31.9138C105.633 32.1212 104.285 32.1212 103.766 32.1212C104.389 32.4323 106.048 32.6398 106.463 32.6398C107.085 32.6398 107.668 32.7834 107.293 33.1584C106.774 33.6769 106.635 33.5732 105.529 33.7807C104.424 33.9881 104.319 33.8844 104.181 33.7807C104.071 33.6977 104.044 33.5032 104.044 33.4163C104.256 33.9139 107.811 33.0546 106.67 32.9509C104.665 32.9832 104.009 32.5087 103.248 32.1212C103.089 32.0404 103.218 31.892 103.316 31.9017C104.784 32.0466 107.345 31.4869 106.581 31.3098C106.292 31.2428 104.425 31.1177 103.4 30.9382C103.003 30.8687 102.522 30.7729 102.564 30.5695C102.625 30.4617 102.731 30.4657 102.833 30.4617C103.45 30.4373 104.688 30.4828 105.988 29.8404C107.194 29.1726 106.605 29.291 105.653 29.4822L105.653 29.4822L105.653 29.4822C104.816 29.6504 103.699 29.875 103.278 29.67C102.756 29.4164 102.935 29.371 103.467 29.2353L103.467 29.2353L103.467 29.2353C103.854 29.1367 104.427 28.9905 105.055 28.6823C106.547 27.9498 105.053 27.8373 103.832 27.9861C102.726 28.1208 103.514 27.5729 104.424 26.9401Z" fill="black"/>
<path fill-rule="evenodd" clip-rule="evenodd" d="M107.275 37.4794C104.842 37.4794 97.391 35.9171 92.2114 35.0577C91.1656 34.7993 94.9413 44.731 97.1895 48.8828C97.8798 50.1563 99.0765 50.0431 100.081 48.9992C104.403 44.5015 111.894 37.4794 107.275 37.4794V37.4794Z" fill="black"/>
<path fill-rule="evenodd" clip-rule="evenodd" d="M33.8624 12.5088C38.041 12.9533 46.1928 14.7813 45.3701 18.5415C44.5465 22.3017 37.3547 24.0518 33.8624 24.457C33.0669 22.9605 32.9642 16.0628 33.8624 12.5088V12.5088ZM34.9773 12.6933C34.6393 14.8431 34.1642 20.172 34.9789 24.2845L35.5985 24.1617C34.8047 20.1568 35.2678 14.9137 35.6009 12.7912L34.9773 12.6933Z" fill="black"/>
<path d="M49.9635 5.01408C50.645 6.03018 49.5741 6.74145 48.99 7.04628L52.3963 9.48407C52.2044 9.34287 52.5926 7.75545 52.7869 6.74146C53.2585 4.2806 51.5001 3.14386 52.4948 3.48993C53.3711 3.79475 57.168 4.40441 58.8231 4.3028C59.0178 3.69314 58.8231 1.56659 58.7258 1.55933C53.2737 1.15289 54.0526 0.59137 51.3265 0.441619C48.7197 0.298415 48.4058 2.37221 49.1271 3.48993C49.4767 4.20119 49.794 4.76126 49.9635 5.01408Z" fill="black"/>
<path fill-rule="evenodd" clip-rule="evenodd" d="M52.6461 59.9521L52.252 51.606L64.2509 71.3049L59.0569 70.5626L52.6461 59.9521Z" fill="black"/>
<path d="M79.771 64.7861H63.6987V70.1215H79.771V64.7861Z" fill="black"/>
</svg>
