<svg width="94" height="47" viewBox="0 0 94 47" fill="none" xmlns="http://www.w3.org/2000/svg">
<path d="M0.994989 24.7507C0.730539 24.543 0.337409 24.5902 0.129666 24.8543C-0.0780766 25.1187 -0.0309105 25.5119 0.233266 25.7194C0.497716 25.927 0.891119 25.8802 1.09886 25.6158C1.3066 25.3514 1.25917 24.9581 0.994989 24.7507ZM4.56996 16.5292C4.25862 16.5681 4.04733 16.8336 4.07351 17.1315L4.38758 20.289L4.38103 20.2822C4.39248 20.3618 4.39712 20.4476 4.39521 20.5267L4.41075 20.7055C4.42356 21.0028 4.27662 21.0655 4.07705 20.8559L2.44674 19.1465C2.24063 18.9303 1.89711 18.9222 1.6741 19.1345C1.45791 19.3408 1.44292 19.6905 1.64902 19.9066L5.46391 23.9069C5.67656 24.1298 6.02662 24.1315 6.24281 23.9254C6.46582 23.7128 6.474 23.3694 6.26135 23.1467L6.06179 22.9371C5.88131 22.748 5.724 22.4073 5.67793 22.129L5.57733 21.0901C5.56942 20.8652 5.6583 20.7417 5.83714 20.7131C6.6324 20.6131 7.4451 20.8835 8.01217 21.4782C8.21828 21.6943 8.56779 21.7093 8.78425 21.5032C9.00726 21.2907 9.0089 20.9407 8.80279 20.7246C8.27444 20.1705 7.62886 19.8181 6.8794 19.6681C6.57706 19.6082 6.30006 19.5886 6.00917 19.5946L6.00235 19.6011C5.97645 19.5872 5.98273 19.6071 5.95628 19.5935C5.61931 19.6049 5.41457 19.3359 5.35241 18.8922L5.1722 17.0257C5.13349 16.7145 4.86767 16.5033 4.56996 16.5292ZM8.34342 13.2138C7.6384 13.7677 7.21637 14.515 7.10923 15.4065C7.00236 16.2978 7.23409 17.1367 7.78834 17.8415C8.34778 18.5534 9.08387 18.9609 9.98845 19.0694C10.8802 19.1762 11.712 18.9502 12.417 18.3964C13.1218 17.8426 13.5457 17.0822 13.6526 16.1909C13.7595 15.2997 13.5261 14.4736 12.9721 13.769C11.9331 12.3411 9.69075 12.0721 8.34342 13.2138ZM11.7363 17.5302C10.7889 18.2743 9.40476 18.1151 8.65476 17.1609C7.89876 16.1991 8.07133 14.817 9.01845 14.0729C9.98028 13.3171 11.3571 13.482 12.1131 14.4439C12.8633 15.3981 12.6981 16.7745 11.7363 17.5302ZM14.6793 8.83364L12.9064 9.85299C12.6471 10.0018 12.5498 10.3381 12.7033 10.605L15.4544 15.3883C15.6081 15.6554 15.9478 15.7401 16.2068 15.591C16.4737 15.4376 16.5634 15.1062 16.4097 14.8391L15.9211 13.9892C15.8148 13.7486 15.8988 13.4635 16.121 13.3253L16.9789 12.832C18.0798 12.1991 18.4617 10.784 17.8287 9.68346C17.1954 8.58262 15.7802 8.20077 14.6793 8.83364ZM16.4296 11.877L15.5632 12.3749C15.3402 12.4921 15.0514 12.4215 14.8969 12.2089L14.1659 10.938C14.0692 10.7137 14.1449 10.4333 14.3461 10.2959L15.2286 9.78866C15.8033 9.45833 16.5427 9.65784 16.8734 10.2327C17.2038 10.8072 17.0045 11.5464 16.4296 11.877ZM21.8243 11.2504C21.5607 11.3695 21.2431 11.2569 21.1201 10.9846L20.8047 10.2872C20.6853 10.0233 20.7843 9.74287 21.0362 9.59815L22.4233 8.97128C22.7041 8.84454 22.8254 8.52347 22.7025 8.25119C22.5754 7.97019 22.2543 7.84918 21.9735 7.97619L20.6714 8.56463L20.6591 8.55972L20.6163 8.57908C20.3527 8.69818 20.0354 8.58562 19.9121 8.31334L19.7352 7.92195C19.6161 7.65812 19.7232 7.37412 19.9757 7.2294L21.9838 6.3218C22.2646 6.19506 22.386 5.87372 22.2589 5.59299C22.136 5.32071 21.8145 5.1997 21.5337 5.32643L18.8873 6.52239C18.4105 6.73798 18.2011 7.18115 18.3742 7.56382L20.4936 12.2512C20.6668 12.6338 21.1379 12.7696 21.6147 12.554L24.2865 11.3466C24.5675 11.2196 24.6886 10.8982 24.5615 10.6178C24.4386 10.3455 24.1136 10.2158 23.8325 10.3428L21.8243 11.2504ZM28.0073 6.25366C27.5016 6.07023 26.917 6.06096 26.4089 6.07486C25.8745 6.09803 25.1741 6.00972 25.0953 5.54339C25.0831 5.47879 25.0678 5.34579 25.1646 5.19479C25.2731 5.02008 25.4822 4.88054 25.8006 4.77288C26.3933 4.57228 26.7845 4.88354 26.8383 5.04271C26.9342 5.32589 27.242 5.4777 27.5337 5.37904C27.8167 5.28337 27.9691 4.97566 27.8734 4.69275C27.7417 4.30327 27.4121 3.9713 26.9803 3.77261C26.51 3.57692 25.9811 3.55866 25.4506 3.738C24.8931 3.9266 24.4898 4.22069 24.2377 4.61153C24.0119 4.96394 23.9487 5.35996 24.0155 5.76116C24.082 6.10321 24.2368 6.38585 24.48 6.60907C24.6668 6.78268 24.9094 6.91732 25.2025 7.02498C25.5632 7.12964 25.9737 7.17816 26.4345 7.17025C27.6242 7.13237 28.0092 7.30762 28.127 7.8887C28.1482 8.03915 28.1747 8.61178 27.2104 8.93803C26.432 9.20131 25.9015 8.76986 25.8265 8.54855L25.7728 8.38965C25.6769 8.10647 25.3603 7.95738 25.0771 8.05305C24.7941 8.14899 24.633 8.45943 24.7289 8.74261L24.7826 8.90178C24.9293 9.33514 25.3061 9.72025 25.8034 9.93639C26.3418 10.1582 26.962 10.185 27.5634 9.98163C28.2003 9.76604 28.6597 9.43353 28.9468 8.97155C29.1989 8.58071 29.2796 8.11983 29.1979 7.67447C29.1223 7.30571 28.9792 6.99936 28.7687 6.75543C28.5697 6.54638 28.3151 6.37631 28.0073 6.25366ZM33.3811 1.45101C33.0809 1.52051 32.8988 1.8116 32.9659 2.10268L33.3083 3.58537C33.3734 3.86746 33.2033 4.12693 32.9457 4.21524L31.1349 4.63306C30.8527 4.6982 30.5749 4.53194 30.5007 4.25231L30.1542 2.75136C30.0872 2.46027 29.7957 2.27821 29.4956 2.34744C29.2044 2.41476 29.0133 2.70802 29.0806 2.99911L30.3235 8.3842C30.3931 8.68428 30.6932 8.86444 30.9844 8.79712C31.2845 8.72789 31.4667 8.4368 31.3974 8.13672L30.9773 6.31716C30.9277 6.06042 31.0866 5.79386 31.335 5.70774L33.173 5.28364C33.4615 5.24603 33.7281 5.40493 33.7933 5.68675L34.209 7.48805C34.2783 7.78813 34.5697 7.97019 34.8699 7.90097C35.1611 7.83364 35.3429 7.54256 35.2737 7.2422L34.0307 1.85711C33.9634 1.56603 33.6722 1.38396 33.3811 1.45101ZM44.2666 5.82493L43.7519 5.33952C43.6602 5.24358 43.6382 5.07678 43.6954 4.96912L44.2287 3.97376C44.3514 3.73963 44.2641 3.45591 44.0302 3.33353C43.796 3.21088 43.5122 3.2981 43.3895 3.53195L42.9877 4.28338C42.9312 4.40003 42.8023 4.42865 42.7107 4.33271L41.8718 3.52568C41.7911 3.44746 41.7745 3.35533 41.8334 3.26648C42.211 2.93806 42.4757 2.59955 42.6185 2.26103L42.6172 2.2425L42.6259 2.23242L42.6251 2.22315C42.7112 2.00129 42.7219 1.77589 42.7041 1.54286C42.6354 0.640166 41.8448 -0.03004 40.9509 0.0378256C40.0476 0.106509 39.3767 0.887917 39.4454 1.79061C39.4675 2.07924 39.5337 2.33653 39.6722 2.56003C39.7919 2.77561 39.9492 2.99774 40.1425 3.19834C40.1861 3.27929 40.1924 3.36297 40.1507 3.43165C39.8467 3.74508 39.636 4.05143 39.5013 4.37059C39.2859 4.86446 39.3429 5.24412 39.3685 5.4578L39.3734 5.52267C39.4075 5.96966 39.6641 6.38994 40.0872 6.65758C40.4724 6.91841 40.9487 7.02253 41.4699 6.98301C42.1403 6.93204 42.7254 6.61615 43.0542 6.14164C43.1466 6.12501 43.2227 6.1381 43.2927 6.19833L43.4454 6.35532L43.778 6.66685C43.8383 6.71863 43.8969 6.75161 43.9549 6.77532L43.9748 6.79249C43.9847 6.80122 43.9942 6.80067 44.0127 6.79931C44.0228 6.80776 44.0695 6.80421 44.1439 6.79849C44.2649 6.78922 44.3647 6.74425 44.4419 6.65431C44.624 6.46243 44.6199 6.16317 44.4288 5.9901L44.2666 5.82493ZM40.9198 0.985762C40.9479 0.983582 40.9844 0.971318 41.0125 0.96941C41.0403 0.967229 41.0596 0.975134 41.0877 0.972953C41.4536 0.982493 41.7371 1.26077 41.7647 1.62381C41.7726 1.72602 41.7521 1.83067 41.7142 1.94596C41.6395 2.07325 41.5207 2.23242 41.3892 2.35452L41.1714 2.56766C41.0926 2.63934 40.9427 2.64125 40.8535 2.57311C40.5392 2.25995 40.4258 1.99721 40.3721 1.7857C40.362 1.77726 40.3606 1.75845 40.3584 1.73092C40.3309 1.36788 40.579 1.05853 40.9198 0.985762ZM42.365 5.45453C42.3421 5.52158 42.2374 5.62324 42.1409 5.70555C42.0798 5.76633 42.0089 5.81866 41.9277 5.86227C41.7933 5.93804 41.6128 6.02662 41.4171 6.04161L41.3985 6.04297C41.1471 6.06205 40.8999 6.01517 40.7058 5.92687C40.3838 5.75489 40.2952 5.45263 40.3034 5.18989C40.3012 5.04025 40.3265 4.87917 40.3797 4.71592C40.4686 4.5314 40.5855 4.34443 40.802 4.11249C40.8993 4.03971 41.0498 4.04707 41.1305 4.12502L42.2524 5.20079C42.3437 5.29673 42.3988 5.40493 42.365 5.45453ZM42.6172 2.2425C42.6264 2.24168 42.6264 2.24168 42.6259 2.23242C42.6264 2.24168 42.6264 2.24168 42.6172 2.2425ZM52.8792 3.12693C53.0965 2.85329 53.2153 2.52378 53.2431 2.15747C53.3217 1.12885 52.5558 0.237333 51.5313 0.159383L49.455 0.00157562C49.1573 -0.0210462 48.8966 0.202447 48.8732 0.509614L48.4544 6.01136C48.4312 6.31853 48.6548 6.57908 48.9528 6.60171L51.6717 6.8083C52.7519 6.89061 53.7238 6.05606 53.8067 4.96721C53.8664 4.18498 53.4869 3.51014 52.8792 3.12693ZM52.1537 2.07461C52.1215 2.49652 51.7516 2.80696 51.3323 2.77507L50.2058 2.68949C49.9825 2.67259 49.8238 2.41557 49.8459 2.1253L49.8811 1.66633C49.9032 1.37606 50.1635 1.15093 50.4522 1.17273L51.4484 1.2485C51.8677 1.28039 52.1859 1.6527 52.1537 2.07461ZM50.1164 5.58536C49.8276 5.56328 49.6035 5.31226 49.6256 5.02363L49.6815 4.28828C49.7041 3.99038 49.8988 3.77098 50.1224 3.78787L51.8914 3.92252C52.3849 3.96013 52.7549 4.39076 52.7172 4.88435C52.6796 5.37767 52.2489 5.74753 51.7554 5.70992L50.1164 5.58536ZM58.2502 1.37279C58.2145 1.1482 58.0368 0.974043 57.8069 0.93316C57.5768 0.892004 57.3503 0.99394 57.2371 1.20135L54.2996 6.28173C54.1474 6.54856 54.2314 6.87644 54.4983 7.02852C54.5392 7.06423 54.6019 7.08494 54.6755 7.09803C54.8961 7.13755 55.1322 7.03725 55.2453 6.82983L55.5021 6.40138C55.6289 6.16835 55.9795 6.01272 56.2737 6.06505L57.4779 6.2801C57.7628 6.33106 58.0286 6.59653 58.0853 6.86254L58.1687 7.35177C58.2189 7.65485 58.5068 7.84836 58.8099 7.79821C59.1128 7.74779 59.305 7.46924 59.2549 7.16644L58.2502 1.37279ZM56.8519 5.05879C56.5667 5.00782 56.4389 4.76688 56.591 4.50005L57.1643 3.52132C57.3165 3.25422 57.4727 3.28229 57.5229 3.5851L57.7126 4.70011C57.763 5.00319 57.5689 5.18689 57.284 5.13592L56.8519 5.05879ZM66.1229 2.94569C65.8266 2.86174 65.5264 3.02882 65.4449 3.31636L65.0291 4.77997C64.9498 5.05852 64.6755 5.20378 64.4075 5.15691L62.6196 4.64941C62.3413 4.57037 62.178 4.29073 62.2481 4.01001L62.669 2.52814C62.7508 2.24087 62.5834 1.94079 62.287 1.85684C61.9997 1.77507 61.6908 1.93997 61.609 2.22724L60.0987 7.54392C60.0147 7.84019 60.1908 8.14245 60.4781 8.22421C60.7745 8.30843 61.0747 8.14108 61.1589 7.84482L61.669 6.04843C61.7494 5.79959 62.0174 5.64287 62.2764 5.68729L64.091 6.20242C64.3617 6.30844 64.5188 6.57636 64.4397 6.85464L63.9345 8.63277C63.8503 8.92903 64.0177 9.22911 64.314 9.31306C64.6014 9.39483 64.9015 9.22748 64.9858 8.93121L66.4959 3.6148C66.5777 3.32726 66.4103 3.02745 66.1229 2.94569ZM70.9206 5.11139C70.9299 4.88435 70.79 4.67858 70.573 4.593C70.3557 4.50714 70.1134 4.5622 69.9615 4.74344L66.0777 9.14326C65.8759 9.37493 65.8934 9.71289 66.1248 9.91458C66.1581 9.95765 66.2153 9.99035 66.2849 10.0179C66.4934 10.0999 66.7448 10.0484 66.8964 9.86743L67.2328 9.49812C67.4035 9.29453 67.7775 9.2114 68.0556 9.32096L69.1935 9.76959C69.4629 9.87561 69.6709 10.1885 69.6739 10.4605L69.6592 10.9566C69.6485 11.2634 69.8923 11.5101 70.1993 11.5207C70.5065 11.5314 70.7497 11.2962 70.7603 10.9893L70.9206 5.11139ZM68.8214 8.44852C68.552 8.3425 68.4743 8.08085 68.6761 7.84918L69.4315 7.00318C69.6335 6.77151 69.781 6.82956 69.7704 7.13673L69.7361 8.267C69.7254 8.57417 69.4991 8.71562 69.2298 8.6096L68.8214 8.44852ZM73.7268 5.90261C73.4528 5.76225 73.1256 5.86772 72.9852 6.14164C72.8489 6.40765 72.9544 6.73444 73.2287 6.8748L74.1431 7.34305C74.3964 7.48341 74.4896 7.79303 74.3574 8.05087L74.2554 8.2501L74.2636 8.25447L72.3348 12.0184C72.1987 12.2844 72.2999 12.6194 72.5657 12.7557C72.8399 12.896 73.1712 12.7824 73.3075 12.5164L75.3383 8.55291C75.4703 8.29535 75.7843 8.19423 76.0463 8.3177L76.9607 8.78594C77.2265 8.92222 77.5616 8.8211 77.6979 8.55509C77.8383 8.28118 77.7246 7.95002 77.4588 7.81375L73.7268 5.90261ZM80.9577 13.3918C81.2789 13.2539 81.5401 13.02 81.7383 12.711C82.2952 11.8426 82.0439 10.6944 81.1791 10.1403L79.4261 9.01652C79.1745 8.85544 78.8391 8.92876 78.6728 9.18796L75.6941 13.8331C75.5278 14.0923 75.6011 14.4278 75.8528 14.5889L78.1483 16.0604C79.0602 16.6447 80.3119 16.3711 80.9013 15.4518C81.3247 14.7914 81.3108 14.0173 80.9577 13.3918ZM80.8184 12.1214C80.59 12.4774 80.1169 12.5755 79.7631 12.3485L78.8119 11.739C78.6232 11.618 78.6055 11.3166 78.7628 11.0716L79.0112 10.684C79.1685 10.439 79.5046 10.3643 79.7483 10.5207L80.5894 11.0598C80.9433 11.2866 81.0469 11.7649 80.8184 12.1214ZM77.3593 14.246C77.1156 14.0898 77.0373 13.7625 77.1936 13.5188L77.5916 12.8979C77.753 12.6464 78.0283 12.5455 78.217 12.6665L79.7107 13.6237C80.1273 13.8909 80.2486 14.4455 79.9814 14.862C79.7143 15.2784 79.1595 15.3997 78.7429 15.1329L77.3593 14.246ZM82.3424 17.7586C82.115 17.5801 82.0681 17.2465 82.253 17.0119L82.726 16.4098C82.9048 16.1822 83.1993 16.1402 83.4441 16.2969L84.6412 17.2372C84.8833 17.4275 85.2244 17.3869 85.4089 17.1519C85.5995 16.9096 85.5583 16.569 85.3162 16.3784L84.1927 15.4959L84.1914 15.4828L84.1543 15.4537C83.9269 15.2751 83.88 14.9415 84.0649 14.7066L84.3301 14.3689C84.5093 14.1413 84.8108 14.1054 85.0556 14.2623L86.7884 15.6235C87.0308 15.814 87.3718 15.7731 87.5621 15.5308C87.7467 15.2959 87.7058 14.9549 87.4637 14.7647L85.1802 12.9707C84.7688 12.6475 84.2789 12.6665 84.0193 12.9966L80.84 17.0413C80.5804 17.3716 80.6777 17.8521 81.0891 18.1751L83.3945 19.9865C83.6368 20.1767 83.9779 20.1358 84.1682 19.8935C84.3528 19.6586 84.3179 19.3106 84.0755 19.12L82.3424 17.7586ZM92.0463 19.1822C91.9926 18.8731 91.7173 18.675 91.4209 18.7153L88.2811 19.1795L88.2876 19.1726C88.2088 19.1879 88.1232 19.1966 88.0439 19.1983L87.8661 19.2225C87.5695 19.2495 87.5 19.1059 87.6998 18.8963L89.3301 17.1868C89.5362 16.9707 89.5281 16.6273 89.3051 16.4147C89.0889 16.2086 88.7388 16.2105 88.5324 16.4267L84.7178 20.4269C84.5052 20.6499 84.5202 20.9996 84.7364 21.2056C84.9594 21.4182 85.3029 21.41 85.5153 21.1871L85.7151 20.9775C85.8956 20.7883 86.2284 20.6153 86.5041 20.5558L87.5376 20.4059C87.762 20.3871 87.8893 20.47 87.9267 20.6474C88.0643 21.4367 87.8331 22.2609 87.2661 22.8556C87.06 23.0718 87.0613 23.4217 87.2778 23.6278C87.5008 23.8404 87.8506 23.8254 88.0567 23.6093C88.5851 23.0552 88.9062 22.3937 89.0202 21.6382C89.0657 21.3332 89.0722 21.056 89.0523 20.7657L89.0455 20.7592C89.0581 20.7327 89.0384 20.7398 89.051 20.7128C89.0234 20.3771 89.2824 20.1596 89.723 20.0764L91.579 19.8074C91.8882 19.7537 92.0864 19.4785 92.0463 19.1822ZM93.5695 25.6815C93.834 25.4738 93.8811 25.0808 93.6734 24.8164C93.4654 24.552 93.0722 24.5049 92.8081 24.7125C92.5436 24.9202 92.4964 25.3133 92.7042 25.5779C92.9119 25.842 93.3053 25.8892 93.5695 25.6815Z" fill="#FEFEFE"/>
<path fill-rule="evenodd" clip-rule="evenodd" d="M55.9095 38.9509C55.9095 36.0319 57.5114 33.4865 59.8844 32.1458L60.5962 32.2739L61.4264 34.341C61.4108 34.3486 61.3953 34.3565 61.38 34.3644L61.564 34.6836L62.3001 36.5154L61.1352 34.4985C60.8408 34.6705 60.5646 34.8711 60.311 35.0962L62.6824 37.4669L62.9749 38.1954L62.633 38.2385L59.302 36.3159C59.1248 36.6132 58.9768 36.9299 58.862 37.2619L62.548 38.2494L61.8159 38.3418L58.7781 37.5279C58.6821 37.8629 58.6197 38.2115 58.5938 38.5704H60.0068L55.9108 39.088C55.91 39.0425 55.9095 38.9967 55.9095 38.9509ZM62.6535 33.9114L61.6548 31.4162C62.3135 31.236 63.0071 31.1398 63.723 31.1398C68.0382 31.1398 71.5365 34.637 71.5365 38.9509C71.5365 43.2651 68.0382 46.7623 63.723 46.7623C59.9416 46.7623 56.7876 44.0768 56.0651 40.5096L58.8724 40.1551L58.7323 40.1924C58.8214 40.55 58.9476 40.8926 59.1071 41.2164L61.527 39.8195L62.241 39.7293L59.2369 41.463C59.4185 41.786 59.6336 42.0872 59.8778 42.3622L62.5504 39.6901L63.0019 39.6331L60.0687 42.5655C60.3304 42.8299 60.6205 43.0662 60.9343 43.2692L63.0368 39.6288L64.2552 39.4748V39.4742C64.3909 39.4505 64.5 39.3535 64.5774 39.1998C64.6518 39.0523 64.6592 38.9057 64.6047 38.7852L64.1622 37.6797L66.0769 34.3644C65.7792 34.2118 65.4645 34.0869 65.1368 33.994L64.1543 37.6596L63.9812 37.2278L64.8664 33.925C64.5441 33.8523 64.2102 33.8098 63.8678 33.8008V36.9444L63.5889 36.2477V33.8008C63.2691 33.8092 62.9564 33.8471 62.6535 33.9114ZM62.4714 43.9378L63.5889 39.7686V44.0907C63.2045 44.0804 62.8304 44.028 62.4714 43.9378ZM63.3195 39.6963L62.2028 43.8629C61.8408 43.7506 61.4956 43.5993 61.1723 43.4142L63.3195 39.6963ZM64.7876 38.8493H68.8757C68.8762 38.8811 68.8765 38.9133 68.8765 38.9457C68.8765 39.2788 68.8449 39.6045 68.7843 39.9198L64.7876 38.8493ZM68.8631 38.5704H64.7876L68.6788 37.5279C68.7745 37.8629 68.8372 38.2115 68.8631 38.5704ZM66.3214 34.4985C66.6161 34.6705 66.892 34.8711 67.1456 35.0962L64.3787 37.8626L66.3214 34.4985ZM68.0054 36.0801C67.8132 35.7942 67.5935 35.5285 67.3492 35.287L64.5758 38.0597L68.0054 36.0801ZM68.1548 36.3159L64.7154 38.3011L68.5949 37.2619C68.4798 36.9299 68.3318 36.6132 68.1548 36.3159ZM68.7244 40.1924L64.7154 39.1185L68.3498 41.2164C68.509 40.8926 68.6355 40.55 68.7244 40.1924ZM59.4514 36.0801C59.6434 35.7942 59.8634 35.5285 60.1074 35.287L62.8808 38.0597L59.4514 36.0801ZM64.5758 39.36L68.2197 41.463C68.0384 41.786 67.823 42.0872 67.5788 42.3622L64.5758 39.36ZM67.3882 42.5655L64.3787 39.5571L66.5223 43.2692C66.8361 43.0662 67.1262 42.8299 67.3882 42.5655ZM64.1371 39.6963L66.2843 43.4142C65.9613 43.5993 65.6161 43.7506 65.2538 43.8629L64.1371 39.6963ZM63.8678 44.0907V39.7686L64.9853 43.9378C64.6262 44.028 64.2524 44.0804 63.8678 44.0907Z" fill="#FEFEFE"/>
<path fill-rule="evenodd" clip-rule="evenodd" d="M66.9353 30.2551C66.9588 30.2107 66.9797 30.1674 66.9983 30.1251C66.1414 30.3304 65.2458 30.6165 63.6158 30.4402C58.5615 29.8935 55.3726 34.1254 55.2017 38.0182C55.4078 37.9828 55.4759 37.7661 55.679 37.7261C56.1891 33.9054 59.6629 30.8455 63.6242 30.8455C64.9018 30.8455 66.2649 30.8455 66.9353 30.2551Z" fill="#FEFEFE"/>
<path fill-rule="evenodd" clip-rule="evenodd" d="M27.4841 38.2764C27.2829 38.6476 27.3699 39.1087 27.6924 39.3813C28.1218 39.7441 28.7759 39.6233 29.0477 39.1314L29.5308 38.2565L33.244 37.2619C33.1289 36.93 32.9811 36.6132 32.8039 36.3159L29.5725 38.181L29.8334 37.7086L32.6545 36.0801C32.4626 35.7942 32.2426 35.5285 31.9986 35.287L30.1504 37.1344L30.6368 36.254L31.7949 35.0962C31.6802 34.9943 31.5605 34.8973 31.4367 34.8057L32.729 32.4661C34.814 33.8686 36.1856 36.2497 36.1856 38.9509C36.1856 43.2652 32.6875 46.7623 28.3724 46.7623C24.0569 46.7623 20.5588 43.2652 20.5588 38.9509C20.5588 34.637 24.0569 31.1399 28.3724 31.1399C29.3274 31.1399 30.2426 31.3113 31.0886 31.6247L29.8023 33.9987C29.7968 33.997 29.7914 33.9954 29.7859 33.994L29.7677 34.0624L29.1962 35.1167L29.5158 33.9251C29.1932 33.8526 28.8593 33.8098 28.5171 33.8008V36.3701L28.2382 36.8847V33.8008C27.8958 33.8098 27.5621 33.8526 27.2396 33.9251L28.1008 37.1385L27.9075 37.495L26.9691 33.994C26.6414 34.087 26.3268 34.2118 26.0291 34.3644L27.8735 37.5579L27.7175 37.8455L25.7846 34.4985C25.4899 34.6705 25.214 34.8711 24.9601 35.0965L27.7151 37.8504L27.4841 38.2764ZM27.1207 43.9378L28.2382 39.7686V44.0907C27.8536 44.0804 27.4798 44.028 27.1207 43.9378ZM27.9689 39.6964L26.8522 43.8629C26.4899 43.7506 26.1447 43.5993 25.8217 43.4143L27.9689 39.6964ZM25.5834 43.2693L27.7273 39.5571L24.7181 42.5655C24.9798 42.8299 25.2699 43.0662 25.5834 43.2693ZM27.5302 39.36L24.5272 42.3622C24.2829 42.0872 24.0676 41.786 23.8863 41.4631L27.5302 39.36ZM23.7562 41.2164L27.3906 39.1186L23.3816 40.1924C23.4705 40.55 23.5967 40.8926 23.7562 41.2164ZM27.3184 38.8493L23.3216 39.9199C23.2611 39.6045 23.2295 39.2788 23.2295 38.9458C23.2295 38.9133 23.2298 38.8812 23.2303 38.8493H27.3184ZM29.4367 38.8493H33.525C33.5253 38.8812 33.5259 38.9133 33.5259 38.9458C33.5259 39.2788 33.4942 39.6045 33.4337 39.9199L29.4367 38.8493ZM33.5122 38.5705H29.4367L33.3279 37.5279C33.4239 37.8629 33.4863 38.2115 33.5122 38.5705ZM27.3184 38.5705H23.2429C23.2688 38.2115 23.3315 37.8629 23.4272 37.5282L27.3184 38.5705ZM23.9512 36.3159C23.7742 36.6132 23.6262 36.93 23.5111 37.2619L27.3906 38.3012L23.9512 36.3159ZM33.3737 40.1924L29.3645 39.1186L32.9989 41.2164C33.1584 40.8926 33.2846 40.55 33.3737 40.1924ZM24.1006 36.0801C24.2928 35.7942 24.5128 35.5285 24.7568 35.287L27.5302 38.0597L24.1006 36.0801ZM29.2251 39.36L32.8688 41.4631C32.6875 41.786 32.4724 42.0872 32.2281 42.3622L29.2251 39.36ZM32.0373 42.5655L29.0278 39.5571L31.1717 43.2693C31.4855 43.0662 31.7756 42.8299 32.0373 42.5655ZM28.7865 39.6964L30.9334 43.4143C30.6104 43.5996 30.2652 43.7506 29.9032 43.8629L28.7865 39.6964ZM28.5171 44.0907V39.7686L29.6346 43.9378C29.2756 44.028 28.9015 44.0804 28.5171 44.0907ZM27.8506 39.3227C27.5409 39.1109 27.4416 38.6994 27.621 38.3699L33.4119 27.7376L34.6251 28.5664L28.9051 39.0687C28.6979 39.4489 28.208 39.5666 27.8506 39.3227Z" fill="#FEFEFE"/>
<path fill-rule="evenodd" clip-rule="evenodd" d="M41.7104 31.3344L38.4852 32.508L38.7554 33.2499L38.2232 33.4437L38.2546 33.529L38.7865 33.3352L38.8342 33.4666L38.3023 33.6604L38.3333 33.7457L38.8652 33.5519L38.9132 33.6833L38.3811 33.8771L38.4121 33.9624L38.9443 33.7686L38.992 33.8999L38.4601 34.0935L38.4912 34.179L39.0231 33.9853L39.0711 34.1166L38.5389 34.3101L38.57 34.3957L39.1022 34.2022L39.1499 34.3333L38.6177 34.5271L38.6488 34.6124L39.1809 34.4189L39.2287 34.5503L38.6968 34.7438L38.7278 34.8291L39.2597 34.6356L39.3077 34.7669L38.7755 34.9604L38.8066 35.0458L39.3388 34.8522L39.3865 34.9836L38.8546 35.1771L38.8857 35.2624L39.4176 35.0689L39.4653 35.2003L38.9334 35.3938L38.9645 35.4791L39.4967 35.2856L39.5444 35.417L39.0122 35.6105L39.0433 35.6958L39.5754 35.5023L39.6232 35.6337L39.0913 35.8272L39.1223 35.9125L39.6542 35.719L39.7022 35.8503L39.17 36.0438L39.2011 36.1292L39.733 35.9356L39.9364 36.4938L43.1616 35.3202L42.9582 34.762L43.4969 34.5663L43.4658 34.4808L42.9271 34.6767L42.8794 34.5456L43.4179 34.3494L43.3871 34.2641L42.8483 34.46L42.8004 34.3289L43.3391 34.1327L43.308 34.0474L42.7693 34.2434L42.7216 34.112L43.2603 33.916L43.2289 33.8307L42.6905 34.0267L42.6428 33.8953L43.1812 33.6993L43.1501 33.614L42.6117 33.81L42.5637 33.6786L43.1024 33.4827L43.0714 33.3974L42.5326 33.5933L42.4849 33.462L43.0234 33.266L42.9926 33.1807L42.4539 33.3766L42.4059 33.2453L42.9446 33.0493L42.9135 32.964L42.3748 33.16L42.3271 33.0286L42.8658 32.8326L42.8347 32.7473L42.296 32.9433L42.2483 32.8119L42.7867 32.616L42.7557 32.5306L42.2172 32.7266L42.1692 32.5952L42.7079 32.3993L42.6769 32.314L42.1382 32.5099L42.0904 32.3786L42.6291 32.1826L42.5981 32.0973L42.0594 32.2932L42.0116 32.1619L42.5501 31.9659L42.519 31.8806L41.9803 32.0766L41.7104 31.3344ZM41.9803 32.0766L42.0116 32.1619L38.7865 33.3352L38.7554 33.2499L41.9803 32.0766ZM42.0594 32.2932L38.8342 33.4666L38.8652 33.5519L42.0904 32.3786L42.0594 32.2932ZM42.1382 32.5099L38.9132 33.6833L38.9443 33.7686L42.1692 32.5952L42.1382 32.5099ZM42.2172 32.7266L42.2483 32.8119L39.0231 33.9853L38.992 33.8999L42.2172 32.7266ZM42.296 32.9433L39.0711 34.1166L39.1022 34.2022L42.3271 33.0286L42.296 32.9433ZM42.3748 33.16L42.4059 33.2453L39.1809 34.4189L39.1499 34.3333L42.3748 33.16ZM42.4539 33.3766L39.2287 34.5503L39.2597 34.6356L42.4849 33.462L42.4539 33.3766ZM42.5326 33.5933L42.5637 33.6786L39.3388 34.8522L39.3077 34.7669L42.5326 33.5933ZM42.6117 33.81L39.3865 34.9836L39.4176 35.0689L42.6428 33.8953L42.6117 33.81ZM42.6905 34.0267L42.7216 34.112L39.4967 35.2856L39.4653 35.2003L42.6905 34.0267ZM42.7693 34.2434L39.5444 35.417L39.5754 35.5023L42.8004 34.3289L42.7693 34.2434ZM42.8483 34.46L42.8794 34.5456L39.6542 35.719L39.6232 35.6337L42.8483 34.46ZM42.9271 34.6767L39.7022 35.8503L39.733 35.9356L42.9582 34.762L42.9271 34.6767Z" fill="#FEFEFE"/>
<path fill-rule="evenodd" clip-rule="evenodd" d="M39.9365 36.4941L43.1623 35.3203L43.4753 38.4792L41.7801 39.0958L39.9365 36.4941Z" fill="#FEFEFE"/>
<path d="M42.6431 31.5677L42.1242 30.1425L37.4072 31.8589L37.9261 33.2841L42.6431 31.5677Z" fill="#FEFEFE"/>
<path fill-rule="evenodd" clip-rule="evenodd" d="M48.8159 32.5056L45.5907 31.332L45.3208 32.0741L44.7887 31.8803L44.7576 31.9659L45.2898 32.1594L45.2418 32.2908L44.7099 32.097L44.6788 32.1826L45.2107 32.3761L45.163 32.5075L44.6308 32.3137L44.5998 32.3993L45.1319 32.5928L45.0839 32.7242L44.552 32.5304L44.521 32.616L45.0528 32.8095L45.0051 32.9408L44.4732 32.7471L44.4422 32.8326L44.9741 33.0262L44.9264 33.1575L44.3942 32.9637L44.3631 33.0493L44.8953 33.2428L44.8473 33.3742L44.3154 33.1807L44.2843 33.266L44.8162 33.4595L44.7685 33.5909L44.2363 33.3974L44.2053 33.4827L44.7374 33.6762L44.6897 33.8076L44.1575 33.6141L44.1265 33.6994L44.6584 33.8929L44.6107 34.0242L44.0788 33.8307L44.0477 33.916L44.5796 34.1096L44.5319 34.2409L44 34.0474L43.9686 34.1327L44.5008 34.3262L44.4528 34.4576L43.9209 34.2641L43.8898 34.3494L44.422 34.5432L44.374 34.6743L43.8418 34.4808L43.811 34.5661L44.3429 34.7599L44.1398 35.3178L47.3647 36.4914L47.5681 35.9332L48.1066 36.1292L48.1376 36.0439L47.5989 35.8479L47.6469 35.7165L48.1856 35.9125L48.2167 35.8272L47.678 35.6312L47.7257 35.4998L48.2644 35.6958L48.2955 35.6105L47.7571 35.4145L47.8048 35.2832L48.3432 35.4791L48.3743 35.3938L47.8358 35.1979L47.8835 35.0665L48.4223 35.2625L48.4533 35.1771L47.9146 34.9812L47.9626 34.8498L48.501 35.0458L48.5321 34.9605L47.9934 34.7645L48.0414 34.6331L48.5801 34.8291L48.6112 34.7438L48.0725 34.5475L48.1202 34.4164L48.6589 34.6124L48.69 34.5271L48.1513 34.3309L48.1993 34.1995L48.7377 34.3957L48.7688 34.3102L48.2303 34.1142L48.278 33.9828L48.8168 34.1791L48.8478 34.0935L48.3091 33.8975L48.3568 33.7661L48.8955 33.9621L48.9266 33.8768L48.3879 33.6808L48.4359 33.5495L48.9743 33.7454L49.0057 33.6601L48.467 33.4641L48.5147 33.3331L49.0534 33.5287L49.0845 33.4434L48.5458 33.2475L48.8159 32.5056ZM48.5458 33.2475L48.5147 33.3331L45.2898 32.1594L45.3208 32.0741L48.5458 33.2475ZM48.467 33.4641L45.2418 32.2908L45.2107 32.3761L48.4359 33.5495L48.467 33.4641ZM48.3879 33.6808L45.163 32.5075L45.1319 32.5928L48.3568 33.7661L48.3879 33.6808ZM48.3091 33.8975L48.278 33.9828L45.0528 32.8095L45.0839 32.7242L48.3091 33.8975ZM48.2303 34.1142L45.0051 32.9408L44.9741 33.0262L48.1993 34.1995L48.2303 34.1142ZM48.1513 34.3309L48.1202 34.4164L44.8953 33.2428L44.9264 33.1575L48.1513 34.3309ZM48.0725 34.5475L44.8473 33.3742L44.8162 33.4595L48.0414 34.6331L48.0725 34.5475ZM47.9934 34.7645L47.9626 34.8498L44.7374 33.6762L44.7685 33.5909L47.9934 34.7645ZM47.9146 34.9812L44.6897 33.8076L44.6584 33.8929L47.8835 35.0665L47.9146 34.9812ZM47.8358 35.1979L47.8048 35.2832L44.5796 34.1096L44.6107 34.0242L47.8358 35.1979ZM47.7571 35.4145L44.5319 34.2409L44.5008 34.3262L47.7257 35.4998L47.7571 35.4145ZM47.678 35.6312L47.6469 35.7165L44.422 34.5432L44.4528 34.4576L47.678 35.6312ZM47.5989 35.8479L44.374 34.6743L44.3429 34.7599L47.5681 35.9332L47.5989 35.8479Z" fill="#FEFEFE"/>
<path fill-rule="evenodd" clip-rule="evenodd" d="M44.1399 35.3178L47.3654 36.4916L45.5745 39.1124L43.8792 38.4958L44.1399 35.3178Z" fill="#FEFEFE"/>
<path d="M49.3804 33.2837L49.8993 31.8585L45.1823 30.1422L44.6634 31.5674L49.3804 33.2837Z" fill="#FEFEFE"/>
<path fill-rule="evenodd" clip-rule="evenodd" d="M40.7308 38.9716C40.7308 38.3794 41.2112 37.8994 41.8034 37.8994H47.3644V41.2883H41.8034C41.2112 41.2883 40.7308 40.8084 40.7308 40.2161V38.9716Z" fill="#FEFEFE"/>
<path fill-rule="evenodd" clip-rule="evenodd" d="M49.1996 41.8414C50.4409 41.8414 51.4473 40.8352 51.4473 39.5943C51.4473 38.3531 50.4409 37.3472 49.1996 37.3472C47.9584 37.3472 46.9519 38.3531 46.9519 39.5943C46.9519 40.8352 47.9584 41.8414 49.1996 41.8414ZM49.1996 41.2684C50.1243 41.2684 50.8739 40.5187 50.8739 39.5943C50.8739 38.6699 50.1243 37.9202 49.1996 37.9202C48.2747 37.9202 47.5251 38.6699 47.5251 39.5943C47.5251 40.5187 48.2747 41.2684 49.1996 41.2684Z" fill="#FEFEFE"/>
<path d="M47.8747 37.8994H46.847V38.4165H47.8747V37.8994Z" fill="#FEFEFE"/>
<path d="M47.7979 40.7713H46.7702V41.2884H47.7979V40.7713Z" fill="#FEFEFE"/>
<path fill-rule="evenodd" clip-rule="evenodd" d="M56.0313 40.7685H51.0188V41.6584H56.2963C56.1914 41.3692 56.1028 41.0721 56.0313 40.7685ZM71.081 41.8407H74.3143V42.7306H70.6663C70.8222 42.4442 70.9607 42.1471 71.081 41.8407ZM56.7797 42.7306C56.624 42.4442 56.4853 42.1471 56.365 41.8407H46.7715V42.7306H56.7797ZM71.1497 41.6584C71.2549 41.3692 71.3435 41.0721 71.4147 40.7685H74.4858V41.6584H71.1497Z" fill="#FEFEFE"/>
<path fill-rule="evenodd" clip-rule="evenodd" d="M51.0189 41.6586V40.7685H50.7615L49.9247 41.6586H51.0189Z" fill="#FEFEFE"/>
<path fill-rule="evenodd" clip-rule="evenodd" d="M27.6215 38.3696C27.4419 38.6991 27.5408 39.1112 27.8508 39.3227C28.2082 39.5669 28.6981 39.4489 28.9051 39.0692L34.2516 29.2628H35.5665L35.5711 29.2816L38.4345 40.7331L38.4391 40.7503L38.4446 40.7672C38.79 41.7827 39.1466 42.4529 39.6256 42.9043C40.1131 43.3633 40.6815 43.5516 41.3315 43.7056L41.3887 43.7192L41.4476 43.7168L50.3658 43.3575L50.3879 43.3567L50.4097 43.3534C51.9168 43.1357 52.7734 42.1092 52.9792 41.2973C53.0147 41.1575 53.0438 40.9659 53.0684 40.7432L64.1518 39.3428L64.1515 39.3404C64.3596 39.3199 64.5221 39.151 64.5221 38.9457C64.5221 38.9067 64.516 38.8691 64.5054 38.8334L64.506 38.8332L64.5019 38.8233C64.4994 38.8157 64.4967 38.8081 64.4937 38.8007C64.4912 38.795 64.4888 38.789 64.4861 38.7833L61.5106 31.3652L61.5079 31.366L61.5081 31.365L50.0419 29.266C49.8015 28.8795 49.5657 28.5538 49.3448 28.3197C49.6837 27.6152 48.4948 26.7005 47.877 26.2252H47.8767V26.2249C47.7936 26.1608 47.7208 26.105 47.6632 26.0584C46.5926 25.1908 39.811 20.4827 37.711 24.6514C37.706 24.6612 37.7011 24.6713 37.696 24.6811H36.7494L38.2235 21.9774L37.0103 21.1489L35.2109 24.4489H34.4577V25.8305L27.6215 38.3696ZM36.8909 31.0232L39.2628 40.5077C39.5913 41.4698 39.8906 41.9751 40.214 42.2799C40.5212 42.569 40.8906 42.7159 41.4724 42.8574L50.3083 42.5014C51.4577 42.327 52.0278 41.5587 52.1474 41.0866C52.2159 40.8168 52.2666 40.1733 52.2977 39.4271C52.3271 38.7236 52.3375 37.9795 52.338 37.4917C51.931 35.6792 51.2598 33.7552 50.5588 32.1556C50.2213 31.3857 49.8792 30.6958 49.5594 30.1336L49.3331 30.0929L49.3405 30.0521L42.6343 29.2123C42.3931 29.1998 42.1439 29.1856 41.8865 29.1693L36.8909 31.0232ZM48.6594 28.846C48.6303 28.8575 48.6003 28.8689 48.5692 28.8801L48.7121 28.8989C48.6946 28.8809 48.6777 28.864 48.6614 28.8479L48.6594 28.846ZM60.6682 32.1311L50.6401 30.3279C50.8735 30.779 51.1112 31.2786 51.3448 31.8117C52.0697 33.4658 52.7658 35.462 53.1859 37.3516L53.196 37.3974V37.4445C53.196 37.9395 53.1859 38.7217 53.1551 39.4628C53.1535 39.4982 53.1521 39.5336 53.1504 39.5691L63.1488 38.306L60.6682 32.1311ZM41.4506 28.8834C39.5591 28.8027 36.1853 27.9035 37.8206 24.9502C39.8647 21.2582 46.323 25.356 47.3418 26.1126C47.3963 26.1532 47.4656 26.202 47.5449 26.2579C48.7251 27.0891 52.0932 29.4617 41.4506 28.8834Z" fill="#FEFEFE"/>
<path fill-rule="evenodd" clip-rule="evenodd" d="M38.1676 24.9804C36.5758 27.5378 39.6818 28.378 41.4335 28.4783C51.9501 29.1984 47.7563 26.7261 46.9678 26.1483C46.0425 25.4705 40.1576 21.7836 38.1676 24.9804Z" fill="#FEFEFE"/>
<path d="M50.3718 28.8272C51.8036 29.048 56.6005 28.7427 57.6431 26.5721" stroke="#FEFEFE" stroke-width="0.542475" stroke-miterlimit="22.9256" stroke-linecap="round"/>
<path fill-rule="evenodd" clip-rule="evenodd" d="M55.5023 29.8566C55.4689 29.8498 55.4422 29.84 55.424 29.8271C55.3622 29.783 55.4018 29.8052 55.5023 29.8566Z" fill="#FEFEFE" stroke="#FEFEFE" stroke-width="0.0180825" stroke-miterlimit="22.9256"/>
<path d="M55.735 28.1713C55.7674 28.1488 55.9169 28.0517 55.9495 28.0287C55.9601 28.064 55.9437 28.1626 55.7936 28.2754C55.6637 28.3729 55.5887 28.4072 55.5581 28.4146C55.7153 28.3913 56.0358 28.3613 56.1459 28.4163C56.2869 28.4868 56.2869 28.5573 56.2869 28.5925C56.2869 28.6277 56.2432 28.734 56.2026 28.7632C56.1459 28.8039 55.8288 28.9801 55.5117 29.0153C55.1946 29.0506 55.5486 29.0796 55.7231 29.0506C55.9345 29.0153 56.2516 28.8744 56.3926 28.8744C56.5335 28.8744 56.5687 28.9096 56.604 28.9449C56.6392 28.9801 56.6166 29.0904 56.5807 29.121C56.4983 29.1915 56.463 29.2648 56.1459 29.3324C55.8288 29.4 55.5469 29.4381 55.3708 29.4381C55.1593 29.4381 55.8943 29.5246 55.9495 29.5295C56.1107 29.5438 56.5687 29.5438 56.6392 29.5791C56.6838 29.6014 56.7449 29.6495 56.6744 29.72C56.604 29.7905 56.5526 29.8152 56.3926 29.861C56.1459 29.9314 55.6879 29.9314 55.5117 29.9314C55.7231 30.0371 56.2869 30.1076 56.4278 30.1076C56.6392 30.1076 56.837 30.1564 56.7097 30.2838C56.5335 30.4599 56.4864 30.4247 56.1107 30.4952C55.735 30.5657 55.6994 30.5304 55.6526 30.4952C55.6152 30.467 55.6059 30.4009 55.6059 30.3714C55.6779 30.5404 56.8859 30.2485 56.4983 30.2133C55.8169 30.2243 55.594 30.0631 55.3355 29.9314C55.2817 29.904 55.3254 29.8536 55.3586 29.8569C55.8575 29.9061 56.7273 29.7159 56.468 29.6558C56.3698 29.633 55.7354 29.5905 55.3872 29.5295C55.2525 29.5059 55.0889 29.4734 55.1032 29.4043C55.1241 29.3677 55.1601 29.369 55.1946 29.3677C55.4042 29.3594 55.8248 29.3748 56.2664 29.1566C56.6762 28.9297 56.476 28.97 56.1527 29.0349L56.1527 29.0349C55.8684 29.0921 55.4888 29.1683 55.3457 29.0987C55.1686 29.0126 55.2292 28.9971 55.41 28.951L55.41 28.951L55.41 28.951C55.5414 28.9175 55.7362 28.8679 55.9495 28.7632C56.4564 28.5143 55.9489 28.4761 55.5338 28.5267C55.1582 28.5724 55.4259 28.3863 55.735 28.1713Z" fill="#FEFEFE"/>
<path fill-rule="evenodd" clip-rule="evenodd" d="M56.7033 31.7509C55.877 31.7509 53.3462 31.2203 51.5869 30.9283C51.2317 30.8406 52.5141 34.214 53.2777 35.6242C53.5122 36.0567 53.9187 36.0183 54.2597 35.6637C55.7278 34.136 58.2723 31.7509 56.7033 31.7509Z" fill="#FEFEFE"/>
<path fill-rule="evenodd" clip-rule="evenodd" d="M31.7682 23.2696C33.1878 23.4206 35.9571 24.0416 35.6776 25.319C35.3979 26.5965 32.9546 27.191 31.7682 27.3287C31.498 26.8203 31.4631 24.477 31.7682 23.2696ZM32.147 23.3323C32.0322 24.0626 31.8707 25.873 32.1475 27.2701L32.358 27.2284C32.0883 25.8678 32.2457 24.0866 32.3588 23.3655L32.147 23.3323Z" fill="#FEFEFE"/>
<path d="M37.2372 20.7241C37.4687 21.0693 37.1049 21.3109 36.9065 21.4145L38.0637 22.2427C37.9985 22.1947 38.1304 21.6554 38.1964 21.3109C38.3566 20.4749 37.7592 20.0887 38.0972 20.2063C38.3948 20.3099 39.6847 20.517 40.247 20.4825C40.3132 20.2753 40.247 19.5529 40.2139 19.5504C38.3618 19.4124 38.6264 19.2216 37.7003 19.1707C36.8147 19.1221 36.708 19.8266 36.9531 20.2063C37.0718 20.4479 37.1796 20.6382 37.2372 20.7241Z" fill="#FEFEFE"/>
<path fill-rule="evenodd" clip-rule="evenodd" d="M38.1482 39.384L38.0143 36.5492L42.0899 43.2401L40.3257 42.9879L38.1482 39.384Z" fill="#FEFEFE"/>
<path d="M47.3614 41.0258H41.9023V42.838H47.3614V41.0258Z" fill="#FEFEFE"/>
</svg>
