<svg width="62" height="41" viewBox="0 0 62 41" fill="none" xmlns="http://www.w3.org/2000/svg">
<path d="M1.068 28.6H7.368V37H5.976V29.884H2.448V37H1.068V28.6ZM12.6135 28.6C13.1495 28.6 13.6335 28.72 14.0655 28.96C14.5055 29.2 14.8495 29.532 15.0975 29.956C15.3455 30.38 15.4695 30.852 15.4695 31.372C15.4695 32.164 15.1975 32.824 14.6535 33.352C14.1095 33.88 13.4295 34.144 12.6135 34.144H10.8855V37H9.5055V28.6H12.6135ZM12.5415 32.836C12.7655 32.836 12.9695 32.8 13.1535 32.728C13.3455 32.656 13.5095 32.556 13.6455 32.428C13.7815 32.3 13.8855 32.144 13.9575 31.96C14.0375 31.776 14.0775 31.58 14.0775 31.372C14.0775 31.092 14.0095 30.844 13.8735 30.628C13.7455 30.404 13.5655 30.228 13.3335 30.1C13.1015 29.972 12.8375 29.908 12.5415 29.908H10.8855V32.836H12.5415ZM20.7763 37.156C19.5043 37.156 18.4483 36.744 17.6083 35.92C16.7683 35.088 16.3483 34.048 16.3483 32.8C16.3483 31.552 16.7683 30.516 17.6083 29.692C18.4483 28.86 19.5043 28.444 20.7763 28.444C22.0483 28.444 23.1043 28.86 23.9443 29.692C24.7843 30.516 25.2043 31.552 25.2043 32.8C25.2043 33.616 25.0123 34.36 24.6283 35.032C24.2523 35.696 23.7243 36.216 23.0443 36.592C22.3723 36.968 21.6163 37.156 20.7763 37.156ZM18.6163 34.972C19.1923 35.548 19.9123 35.836 20.7763 35.836C21.6483 35.836 22.3683 35.548 22.9363 34.972C23.5123 34.388 23.8003 33.664 23.8003 32.8C23.8003 31.936 23.5123 31.216 22.9363 30.64C22.3683 30.056 21.6483 29.764 20.7763 29.764C19.9123 29.764 19.1923 30.056 18.6163 30.64C18.0403 31.216 17.7523 31.936 17.7523 32.8C17.7523 33.664 18.0403 34.388 18.6163 34.972ZM35.7664 32.788C35.7664 33.34 35.6744 33.868 35.4904 34.372C35.3144 34.876 35.0544 35.328 34.7104 35.728C34.3744 36.128 33.9464 36.456 33.4264 36.712C32.9064 36.96 32.3304 37.104 31.6984 37.144V38.428H30.3544V37.144C29.7224 37.104 29.1464 36.96 28.6264 36.712C28.1064 36.456 27.6744 36.132 27.3304 35.74C26.9944 35.34 26.7344 34.888 26.5504 34.384C26.3664 33.88 26.2744 33.356 26.2744 32.812C26.2744 32.372 26.3304 31.948 26.4424 31.54C26.5544 31.124 26.7264 30.74 26.9584 30.388C27.1904 30.028 27.4664 29.712 27.7864 29.44C28.1144 29.16 28.4944 28.936 28.9264 28.768C29.3664 28.592 29.8424 28.488 30.3544 28.456V27.328H31.6984V28.456C32.3304 28.496 32.9064 28.64 33.4264 28.888C33.9464 29.136 34.3744 29.46 34.7104 29.86C35.0544 30.252 35.3144 30.7 35.4904 31.204C35.6744 31.708 35.7664 32.236 35.7664 32.788ZM31.6864 35.836C32.5024 35.764 33.1544 35.44 33.6424 34.864C34.1304 34.28 34.3744 33.592 34.3744 32.8C34.3744 32.016 34.1304 31.336 33.6424 30.76C33.1544 30.176 32.5024 29.848 31.6864 29.776V35.836ZM27.6784 32.8C27.6784 33.584 27.9184 34.268 28.3984 34.852C28.8864 35.436 29.5384 35.764 30.3544 35.836V29.776C29.5464 29.848 28.8984 30.176 28.4104 30.76C27.9224 31.336 27.6784 32.016 27.6784 32.8ZM43.1204 28.6H44.1164V37H42.7484V31.18L38.3444 37H37.3844V28.6H38.7644V34.36L43.1204 28.6ZM47.7192 28.6H53.0832V37H51.7032V29.884H48.9552L48.5592 34.168C48.3752 36.064 47.4712 37.012 45.8472 37.012H45.4512V35.656H45.8472C46.6312 35.656 47.0672 35.176 47.1552 34.216L47.7192 28.6ZM58.3763 31.396C59.2243 31.396 59.9203 31.66 60.4643 32.188C61.0083 32.716 61.2803 33.388 61.2803 34.204C61.2803 35.012 61.0083 35.68 60.4643 36.208C59.9203 36.736 59.2243 37 58.3763 37H55.2203V28.6H56.6003V31.396H58.3763ZM58.2803 35.704C58.7443 35.704 59.1243 35.564 59.4203 35.284C59.7243 34.996 59.8763 34.632 59.8763 34.192C59.8763 33.752 59.7243 33.392 59.4203 33.112C59.1243 32.824 58.7443 32.68 58.2803 32.68H56.6003V35.704H58.2803Z" fill="white"/>
<path d="M26.5 4.5C26.5 6.981 28.519 9 31 9C33.481 9 35.5 6.981 35.5 4.5C35.5 2.019 33.481 0 31 0C28.519 0 26.5 2.019 26.5 4.5ZM39 19H40V18C40 14.141 36.859 11 33 11H29C25.14 11 22 14.141 22 18V19H39Z" fill="white"/>
</svg>
