<svg width="24" height="24" viewBox="0 0 24 24" fill="none" xmlns="http://www.w3.org/2000/svg">
<path fill-rule="evenodd" clip-rule="evenodd" d="M15.68 0H8.32C1.6 0 0 1.6 0 8.32V15.68C0 22.4 1.6 24 8.32 24H15.68C22.4 24 24 22.4 24 15.68V8.32C24 1.6 22.4 0 15.68 0ZM19.125 7.625C19.6543 7.625 19.7654 7.89747 19.6542 8.26828C19.4318 9.28796 17.2996 12.2914 17.2996 12.2914C17.1143 12.5881 17.0401 12.7364 17.2996 13.0701C17.3911 13.1981 17.5861 13.3891 17.8093 13.6077C18.0387 13.8325 18.298 14.0864 18.5048 14.3308C19.2565 15.1765 19.823 15.8899 19.9808 16.3816C20.125 16.875 19.875 17.125 19.375 17.125H17.625C17.1563 17.125 16.9203 16.8624 16.4102 16.2951C16.1941 16.0546 15.9287 15.7594 15.5754 15.4061C14.5372 14.405 14.0922 14.2752 13.8327 14.2752C13.4804 14.2752 13.375 14.375 13.375 14.875V16.4444C13.375 16.875 13.2374 17.125 12.125 17.125C10.271 17.125 8.23357 15.9994 6.78748 13.923C4.61831 10.8824 4.02502 8.58344 4.02502 8.11992C4.02502 7.86037 4.12503 7.625 4.62503 7.625H6.37503C6.82228 7.625 6.99052 7.82075 7.15825 8.30534C8.01415 10.7986 9.45725 12.9774 10.0505 12.9774C10.273 12.9774 10.375 12.875 10.375 12.31V9.73292C10.3349 8.99935 10.0786 8.68211 9.88881 8.44713C9.7716 8.30202 9.67973 8.18829 9.67973 8.02725C9.67973 7.83152 9.84696 7.625 10.125 7.625H12.875C13.2459 7.625 13.375 7.82331 13.375 8.26828V11.7352C13.375 12.106 13.536 12.2358 13.6472 12.2358C13.8697 12.2358 14.0552 12.106 14.463 11.6981C15.7237 10.2891 16.6137 8.11992 16.6137 8.11992C16.7249 7.86037 16.9301 7.625 17.375 7.625H19.125Z" fill="white"/>
</svg>
