<svg width="695" height="660" viewBox="0 0 695 660" fill="none" xmlns="http://www.w3.org/2000/svg">
<path d="M88.7754 137.871C87.3129 136.723 85.1388 136.983 83.9899 138.444C82.8411 139.906 83.1019 142.081 84.5629 143.228C86.0253 144.377 88.2009 144.117 89.3498 142.655C90.4987 141.193 90.2363 139.018 88.7754 137.871ZM108.546 92.4044C106.824 92.6199 105.655 94.088 105.8 95.7354L107.537 113.197L107.501 113.16C107.564 113.6 107.59 114.074 107.579 114.512L107.665 115.5C107.736 117.145 106.923 117.491 105.82 116.332L96.8038 106.879C95.664 105.683 93.7643 105.638 92.531 106.812C91.3354 107.953 91.2525 109.887 92.3923 111.082L113.489 133.205C114.665 134.438 116.601 134.447 117.797 133.307C119.03 132.132 119.075 130.232 117.899 129.001L116.796 127.842C115.798 126.796 114.928 124.912 114.673 123.373L114.117 117.627C114.073 116.384 114.564 115.701 115.553 115.542C119.951 114.989 124.446 116.485 127.582 119.773C128.722 120.969 130.655 121.052 131.852 119.912C133.085 118.736 133.094 116.801 131.954 115.606C129.032 112.542 125.462 110.593 121.317 109.764C119.645 109.432 118.114 109.323 116.505 109.357L116.467 109.393C116.324 109.316 116.359 109.426 116.212 109.351C114.349 109.414 113.217 107.926 112.873 105.472L111.876 95.1506C111.662 93.4293 110.192 92.2612 108.546 92.4044ZM129.414 74.0699C125.515 77.1327 123.181 81.2656 122.588 86.1959C121.997 91.1247 123.279 95.7641 126.344 99.6619C129.438 103.599 133.509 105.852 138.511 106.452C143.443 107.043 148.043 105.793 151.942 102.731C155.839 99.6679 158.183 95.4626 158.775 90.5338C159.366 85.6051 158.075 81.0365 155.011 77.1402C149.265 69.2436 136.865 67.7559 129.414 74.0699ZM148.177 97.9406C142.938 102.055 135.283 101.175 131.135 95.8982C126.955 90.5791 127.909 82.9357 133.147 78.8208C138.466 74.6411 146.08 75.553 150.261 80.8722C154.41 86.1492 153.496 93.7609 148.177 97.9406ZM164.452 49.8465L154.648 55.4837C153.214 56.3067 152.676 58.1667 153.525 59.6423L168.739 86.0949C169.589 87.572 171.468 88.0408 172.9 87.2163C174.376 86.3677 174.872 84.5349 174.022 83.0578L171.32 78.3581C170.732 77.0272 171.196 75.4506 172.425 74.6864L177.17 71.9582C183.258 68.4583 185.37 60.6326 181.869 54.5462C178.367 48.4583 170.541 46.3466 164.452 49.8465ZM174.132 66.6767L169.34 69.4305C168.107 70.0786 166.51 69.6883 165.656 68.5126L161.614 61.4842C161.078 60.2437 161.497 58.6927 162.61 57.933L167.49 55.128C170.669 53.3012 174.758 54.4045 176.586 57.5833C178.414 60.7607 177.312 64.8484 174.132 66.6767ZM203.966 63.2115C202.508 63.8702 200.752 63.2477 200.072 61.7419L198.327 57.8848C197.667 56.4258 198.214 54.8748 199.607 54.0744L207.278 50.6077C208.831 49.9068 209.502 48.1312 208.822 46.6255C208.12 45.0715 206.344 44.4022 204.791 45.1046L197.59 48.3588L197.522 48.3317L197.285 48.4387C195.828 49.0974 194.073 48.4749 193.391 46.9691L192.413 44.8047C191.754 43.3456 192.346 41.7751 193.742 40.9747L204.848 35.9555C206.401 35.2546 207.072 33.4775 206.369 31.925C205.689 30.4193 203.912 29.75 202.359 30.4509L187.724 37.0648C185.087 38.2571 183.929 40.7079 184.886 42.8241L196.607 68.7462C197.564 70.8624 200.17 71.613 202.807 70.4208L217.582 63.7436C219.136 63.0412 219.806 61.2641 219.103 59.7131C218.423 58.2074 216.626 57.4899 215.072 58.1923L203.966 63.2115ZM238.159 35.5787C235.362 34.5643 232.13 34.513 229.319 34.5899C226.364 34.718 222.491 34.2297 222.055 31.6507C221.988 31.2935 221.903 30.5579 222.438 29.7229C223.038 28.7568 224.195 27.985 225.956 27.3897C229.233 26.2803 231.397 28.0016 231.694 28.8819C232.225 30.4479 233.927 31.2875 235.54 30.7418C237.105 30.2128 237.948 28.5111 237.419 26.9465C236.691 24.7926 234.868 22.9568 232.48 21.858C229.879 20.7757 226.954 20.6748 224.02 21.6665C220.937 22.7096 218.707 24.3359 217.312 26.4974C216.064 28.4463 215.714 30.6363 216.083 32.855C216.451 34.7467 217.308 36.3097 218.652 37.5442C219.685 38.5043 221.027 39.2489 222.648 39.8443C224.643 40.423 226.913 40.6913 229.461 40.6476C236.041 40.4381 238.17 41.4073 238.821 44.6208C238.938 45.4528 239.085 48.6196 233.752 50.4238C229.448 51.8798 226.514 49.4938 226.099 48.2699L225.802 47.3912C225.271 45.8251 223.521 45.0006 221.954 45.5297C220.389 46.0602 219.498 47.777 220.029 49.3431L220.326 50.2233C221.137 52.6199 223.221 54.7497 225.971 55.9449C228.949 57.1719 232.379 57.3196 235.705 56.1951C239.226 55.0029 241.767 53.164 243.355 50.6092C244.749 48.4478 245.195 45.899 244.743 43.4361C244.325 41.3967 243.534 39.7026 242.37 38.3536C241.269 37.1975 239.861 36.2569 238.159 35.5787ZM267.877 9.01902C266.217 9.40337 265.21 11.0131 265.581 12.6229L267.475 20.8225C267.835 22.3825 266.894 23.8174 265.469 24.3058L255.455 26.6164C253.895 26.9767 252.358 26.0572 251.948 24.5108L250.032 16.2102C249.661 14.6005 248.049 13.5936 246.39 13.9764C244.779 14.3487 243.722 15.9706 244.095 17.5803L250.968 47.361C251.353 49.0205 253.013 50.0168 254.623 49.6445C256.283 49.2617 257.29 47.6519 256.907 45.9924L254.584 35.9299C254.309 34.51 255.188 33.0359 256.562 32.5596L266.727 30.2143C268.322 30.0063 269.796 30.885 270.157 32.4435L272.456 42.4051C272.839 44.0646 274.451 45.0715 276.111 44.6886C277.721 44.3163 278.727 42.7066 278.344 41.0455L271.47 11.2649C271.098 9.65509 269.487 8.64823 267.877 9.01902ZM328.076 33.2077L325.23 30.5233C324.723 29.9927 324.601 29.0703 324.918 28.4749L327.867 22.9703C328.545 21.6756 328.063 20.1065 326.769 19.4298C325.474 18.7515 323.905 19.2338 323.226 20.527L321.004 24.6826C320.692 25.3277 319.979 25.486 319.472 24.9554L314.833 20.4924C314.386 20.0598 314.294 19.5503 314.62 19.059C316.708 17.2427 318.172 15.3707 318.962 13.4986L318.955 13.3961L319.003 13.3404L318.998 13.2891C319.475 12.0622 319.534 10.8157 319.436 9.52697C319.056 4.53488 314.683 0.828501 309.74 1.20381C304.745 1.58364 301.034 5.905 301.414 10.8971C301.536 12.4933 301.903 13.9161 302.669 15.1521C303.331 16.3444 304.2 17.5728 305.269 18.6821C305.511 19.1298 305.545 19.5925 305.315 19.9724C303.634 21.7057 302.468 23.3999 301.723 25.1649C300.532 27.8961 300.847 29.9957 300.989 31.1774L301.016 31.5362C301.205 34.0081 302.623 36.3323 304.963 37.8125C307.094 39.2549 309.728 39.8307 312.61 39.6121C316.318 39.3303 319.553 37.5833 321.372 34.9592C321.883 34.8672 322.303 34.9396 322.691 35.2727L323.535 36.1409L325.375 37.8637C325.708 38.1501 326.032 38.3325 326.353 38.4636L326.463 38.5585C326.517 38.6068 326.57 38.6038 326.673 38.5962C326.728 38.643 326.986 38.6234 327.398 38.5917C328.067 38.5405 328.619 38.2918 329.046 37.7944C330.053 36.7332 330.03 35.0783 328.973 34.1211L328.076 33.2077ZM309.568 6.4461C309.723 6.43404 309.925 6.36622 310.08 6.35567C310.234 6.34361 310.341 6.38732 310.497 6.37526C312.52 6.42802 314.088 7.96695 314.24 9.97463C314.284 10.5399 314.171 11.1186 313.961 11.7562C313.548 12.4601 312.891 13.3404 312.164 14.0156L310.959 15.1943C310.524 15.5907 309.695 15.6013 309.201 15.2245C307.463 13.4926 306.836 12.0396 306.539 10.87C306.483 10.8232 306.476 10.7192 306.464 10.567C306.311 8.5593 307.683 6.84854 309.568 6.4461ZM317.56 31.1593C317.433 31.5301 316.855 32.0923 316.321 32.5475C315.983 32.8837 315.591 33.1731 315.142 33.4142C314.398 33.8332 313.4 34.3231 312.318 34.406L312.215 34.4135C310.825 34.5191 309.458 34.2598 308.384 33.7714C306.604 32.8204 306.114 31.1488 306.159 29.6958C306.147 28.8683 306.287 27.9775 306.581 27.0746C307.073 26.0542 307.719 25.0202 308.917 23.7375C309.455 23.3351 310.287 23.3758 310.733 23.8069L316.937 29.7561C317.443 30.2866 317.747 30.885 317.56 31.1593ZM318.955 13.3961C319.006 13.3916 319.006 13.3916 319.003 13.3404C319.006 13.3916 319.006 13.3916 318.955 13.3961ZM375.706 18.2872C376.907 16.7739 377.565 14.9516 377.719 12.9259C378.153 7.23742 373.918 2.30713 368.252 1.87605L356.769 1.00334C355.123 0.878239 353.681 2.1142 353.552 3.8129L351.236 34.2387C351.108 35.9374 352.344 37.3784 353.992 37.5035L369.028 38.646C375.002 39.1012 380.377 34.4859 380.835 28.4643C381.165 24.1385 379.066 20.4065 375.706 18.2872ZM371.694 12.4677C371.516 14.8009 369.47 16.5177 367.151 16.3414L360.921 15.8681C359.687 15.7746 358.809 14.3533 358.931 12.748L359.126 10.2098C359.248 8.60452 360.688 7.35951 362.284 7.48009L367.793 7.89911C370.112 8.07547 371.872 10.1344 371.694 12.4677ZM360.427 31.8828C358.83 31.7607 357.591 30.3726 357.713 28.7764L358.022 24.7097C358.147 23.0623 359.224 21.8489 360.46 21.9424L370.243 22.687C372.972 22.895 375.018 25.2765 374.81 28.0061C374.602 30.7343 372.22 32.7797 369.491 32.5717L360.427 31.8828ZM405.409 8.58643C405.211 7.34444 404.228 6.38129 402.957 6.1552C401.685 5.9276 400.432 6.49132 399.806 7.63836L383.561 35.7339C382.72 37.2095 383.184 39.0228 384.66 39.8638C384.886 40.0613 385.233 40.1758 385.64 40.2482C386.86 40.4668 388.165 39.9121 388.791 38.765L390.211 36.3956C390.912 35.1069 392.851 34.2462 394.478 34.5356L401.138 35.7249C402.713 36.0067 404.183 37.4748 404.497 38.9459L404.958 41.6515C405.236 43.3276 406.828 44.3977 408.504 44.1204C410.179 43.8415 411.242 42.3011 410.965 40.6265L405.409 8.58643ZM397.676 28.9708C396.099 28.6889 395.392 27.3565 396.233 25.8809L399.404 20.4683C400.245 18.9911 401.109 19.1464 401.386 20.821L402.436 26.9872C402.715 28.6633 401.641 29.6792 400.066 29.3973L397.676 28.9708ZM448.946 17.2849C447.308 16.8207 445.648 17.7446 445.197 19.3348L442.898 27.4289C442.459 28.9693 440.942 29.7727 439.46 29.5134L429.573 26.7069C428.033 26.2698 427.13 24.7233 427.518 23.1708L429.846 14.9758C430.298 13.3871 429.372 11.7276 427.733 11.2633C426.144 10.8112 424.436 11.7231 423.984 13.3117L415.631 42.7141C415.167 44.3525 416.141 46.0241 417.73 46.4763C419.369 46.942 421.029 46.0165 421.494 44.3781L424.315 34.4437C424.76 33.0676 426.242 32.2009 427.674 32.4466L437.71 35.2953C439.207 35.8816 440.075 37.3633 439.638 38.9022L436.844 48.7357C436.378 50.3741 437.304 52.0336 438.943 52.4978C440.532 52.95 442.192 52.0245 442.658 50.3861L451.009 20.9853C451.461 19.3951 450.536 17.7371 448.946 17.2849ZM475.479 29.2617C475.53 28.0061 474.757 26.8681 473.557 26.3949C472.355 25.9201 471.015 26.2245 470.175 27.2269L448.696 51.5588C447.581 52.84 447.677 54.709 448.957 55.8244C449.141 56.0625 449.458 56.2434 449.842 56.3956C450.995 56.8493 452.386 56.5644 453.224 55.5636L455.084 53.5212C456.028 52.3953 458.097 51.9356 459.635 52.5415L465.928 55.0225C467.417 55.6088 468.568 57.3392 468.584 58.8434L468.503 61.5867C468.444 63.2839 469.792 64.6479 471.49 64.7067C473.189 64.7655 474.534 63.4647 474.592 61.7675L475.479 29.2617ZM463.87 47.7167C462.38 47.1304 461.95 45.6834 463.066 44.4022L467.244 39.7237C468.361 38.4425 469.177 38.7635 469.118 40.4622L468.928 46.7129C468.869 48.4116 467.618 49.1939 466.128 48.6075L463.87 47.7167ZM490.998 33.6373C489.482 32.8611 487.673 33.4444 486.897 34.9592C486.143 36.4303 486.726 38.2375 488.243 39.0137L493.3 41.6032C494.7 42.3795 495.216 44.0917 494.485 45.5176L493.921 46.6194L493.966 46.6436L483.299 67.459C482.547 68.9301 483.106 70.7825 484.576 71.5362C486.093 72.3124 487.925 71.6839 488.679 70.2128L499.91 48.294C500.639 46.8697 502.376 46.3105 503.825 46.9932L508.882 49.5827C510.352 50.3364 512.205 49.7772 512.959 48.3061C513.735 46.7913 513.106 44.9599 511.636 44.2063L490.998 33.6373ZM530.986 75.0541C532.762 74.2915 534.206 72.9982 535.303 71.289C538.383 66.4868 536.993 60.1367 532.21 57.0724L522.516 50.8579C521.124 49.9671 519.27 50.3726 518.35 51.806L501.877 77.4944C500.957 78.9278 501.363 80.7833 502.755 81.6741L515.449 89.8119C520.493 93.0434 527.414 91.5301 530.674 86.4461C533.015 82.794 532.939 78.5133 530.986 75.0541ZM530.216 68.0287C528.952 69.9972 526.336 70.5399 524.379 69.2843L519.119 65.914C518.076 65.2448 517.978 63.5778 518.848 62.2227L520.221 60.0794C521.091 58.7243 522.95 58.3114 524.298 59.1765L528.949 62.1579C530.906 63.412 531.479 66.0572 530.216 68.0287ZM511.086 79.7779C509.738 78.9143 509.305 77.104 510.169 75.7565L512.371 72.323C513.263 70.9317 514.786 70.3741 515.829 71.0433L524.09 76.3368C526.394 77.814 527.065 80.8813 525.587 83.1844C524.109 85.4875 521.041 86.1582 518.738 84.6826L511.086 79.7779ZM538.644 99.2037C537.386 98.2164 537.127 96.3715 538.149 95.0737L540.765 91.7442C541.754 90.4856 543.382 90.2535 544.736 91.1202L551.357 96.3202C552.695 97.3723 554.581 97.1477 555.602 95.8485C556.656 94.5085 556.428 92.6244 555.09 91.5708L548.876 86.6903L548.869 86.6179L548.664 86.4567C547.406 85.4694 547.147 83.6245 548.169 82.3252L549.636 80.4577C550.627 79.1991 552.294 79.0002 553.648 79.8684L563.231 87.3957C564.571 88.4493 566.458 88.2232 567.51 86.8832C568.531 85.5839 568.305 83.6983 566.966 82.6463L554.337 72.7254C552.062 70.9378 549.353 71.0433 547.917 72.8686L530.335 95.2365C528.899 97.0633 529.438 99.7207 531.713 101.507L544.462 111.524C545.802 112.576 547.688 112.35 548.741 111.01C549.761 109.711 549.568 107.786 548.228 106.732L538.644 99.2037ZM592.308 107.076C592.011 105.367 590.489 104.271 588.85 104.494L571.486 107.061L571.522 107.023C571.086 107.108 570.613 107.156 570.174 107.165L569.191 107.299C567.551 107.448 567.166 106.654 568.271 105.495L577.287 96.0414C578.427 94.8461 578.382 92.947 577.149 91.7713C575.953 90.6318 574.017 90.6423 572.876 91.8376L551.78 113.96C550.604 115.193 550.687 117.127 551.883 118.266C553.116 119.442 555.016 119.397 556.19 118.164L557.295 117.005C558.293 115.959 560.134 115.001 561.659 114.673L567.374 113.844C568.615 113.74 569.319 114.198 569.526 115.179C570.287 119.544 569.009 124.102 565.873 127.391C564.733 128.586 564.74 130.522 565.937 131.661C567.171 132.837 569.105 132.754 570.245 131.559C573.167 128.494 574.943 124.836 575.573 120.658C575.825 118.972 575.861 117.439 575.751 115.833L575.713 115.797C575.783 115.651 575.674 115.69 575.743 115.541C575.591 113.684 577.023 112.481 579.46 112.022L589.724 110.534C591.434 110.237 592.53 108.715 592.308 107.076ZM600.732 143.019C602.194 141.87 602.455 139.697 601.306 138.234C600.156 136.772 597.982 136.512 596.521 137.66C595.058 138.809 594.798 140.982 595.947 142.446C597.095 143.906 599.271 144.167 600.732 143.019Z" fill="#FEFEFE"/>
<path d="M282.631 577.948V575.607C282.631 574.918 283.183 574.368 283.872 574.299H288.486C289.586 574.299 290.413 573.438 290.413 572.371C290.413 571.271 289.586 570.41 288.486 570.41H284.216C284.181 570.41 284.147 570.41 284.112 570.41H283.975C283.253 570.41 282.631 569.791 282.631 569.067V567.759C282.631 567.037 283.183 566.487 283.905 566.418H290.586C291.687 566.418 292.513 565.557 292.513 564.455C292.513 563.423 291.687 562.562 290.586 562.562H281.772C280.016 562.562 278.776 563.629 278.776 565.075V580.667C278.776 582.113 280.016 583.18 281.772 583.18H290.654C291.756 583.18 292.617 582.319 292.617 581.217C292.617 580.185 291.756 579.291 290.654 579.291H283.975C283.253 579.291 282.631 578.705 282.631 577.948ZM302.601 570.204C301.224 569.825 299.537 569.033 299.537 567.898C299.537 566.624 301.086 566.418 302.05 566.418C303.738 566.418 304.494 567.485 304.494 567.932C304.494 568.965 305.321 569.825 306.423 569.825C307.49 569.825 308.351 568.965 308.351 567.932C308.351 564.627 305.045 562.562 302.05 562.562C298.711 562.562 295.578 564.387 295.611 568.035C295.646 571.271 298.711 573.06 301.466 573.921C304.46 574.816 305.458 575.573 305.458 576.881C305.458 577.018 305.425 577.191 305.425 577.329C305.355 577.742 304.873 579.187 302.05 579.187C299.744 579.187 298.711 577.638 298.711 577.018V576.503C298.711 575.435 297.815 574.575 296.783 574.575C295.715 574.575 294.82 575.435 294.82 576.503V577.018C294.82 580.702 298.676 583.076 302.05 583.076C305.838 583.076 309.315 580.976 309.315 576.916C309.315 572.854 305.975 571.236 302.601 570.204ZM309.797 564.387C309.797 565.453 310.658 566.313 311.76 566.313H314.858C315.582 566.348 316.167 566.933 316.167 567.622V568.311C316.167 568.38 316.167 568.413 316.202 568.448V581.15C316.202 582.217 317.063 583.076 318.095 583.076C319.197 583.076 320.057 582.217 320.057 581.15V567.622C320.057 566.933 320.677 566.348 321.366 566.313H324.464C325.531 566.313 326.427 565.453 326.427 564.387C326.427 563.285 325.531 562.425 324.464 562.425H311.76C310.658 562.425 309.797 563.285 309.797 564.387ZM350.838 583.076C352.044 583.076 352.938 582.147 352.938 581.011C352.938 579.807 352.044 578.911 350.838 578.911H344.848C344.194 578.774 344.091 578.257 344.4 577.948L348.498 574.025C349.909 572.612 350.873 571.443 351.596 570.238C352.492 568.689 352.938 567.139 352.938 565.557C352.938 561.529 349.703 558.295 345.674 558.295C343.85 558.295 342.059 558.982 340.717 560.256C339.373 561.495 338.582 563.181 338.443 565.007C338.341 566.211 339.236 567.14 340.371 567.244C340.476 567.244 340.441 567.278 340.543 567.278C341.611 567.278 342.506 566.418 342.61 565.316C342.748 563.698 344.056 562.459 345.674 562.459C347.431 562.459 348.772 563.801 348.772 565.557C348.772 568.104 346.259 570.41 343.78 572.716C342.506 573.921 341.302 575.022 340.304 576.261C339.098 577.844 338.478 579.394 338.443 580.874V581.011C338.443 582.147 339.373 583.076 340.51 583.076H350.838ZM363.611 583.18C367.916 583.18 371.462 579.635 371.462 575.327V566.491C371.462 562.184 367.916 558.673 363.611 558.673C359.308 558.673 355.762 562.184 355.762 566.491V575.327C355.762 579.635 359.308 583.18 363.611 583.18ZM363.611 562.838C365.643 562.838 367.261 564.49 367.261 566.491V575.327C367.261 577.329 365.643 578.981 363.611 578.981C361.58 578.981 359.928 577.329 359.928 575.327V566.491C359.928 564.49 361.58 562.838 363.611 562.838ZM387.196 583.076C388.402 583.076 389.296 582.147 389.296 581.011C389.296 579.807 388.402 578.911 387.196 578.911H381.206C380.552 578.774 380.449 578.257 380.758 577.948L384.856 574.025C386.267 572.612 387.231 571.443 387.954 570.238C388.85 568.689 389.296 567.139 389.296 565.557C389.296 561.529 386.061 558.295 382.032 558.295C380.208 558.295 378.417 558.982 377.075 560.256C375.731 561.495 374.94 563.181 374.801 565.007C374.699 566.211 375.594 567.14 376.73 567.244C376.834 567.244 376.799 567.278 376.901 567.278C377.969 567.278 378.864 566.418 378.968 565.316C379.106 563.698 380.414 562.459 382.032 562.459C383.789 562.459 385.13 563.801 385.13 565.557C385.13 568.104 382.617 570.41 380.138 572.716C378.864 573.921 377.66 575.022 376.662 576.261C375.456 577.844 374.836 579.394 374.801 580.874V581.011C374.801 582.147 375.731 583.076 376.868 583.076H387.196ZM404.583 583.076C405.789 583.076 406.683 582.147 406.683 581.011C406.683 579.807 405.789 578.911 404.583 578.911H398.593C397.938 578.774 397.836 578.257 398.145 577.948L402.243 574.025C403.654 572.612 404.617 571.443 405.341 570.238C406.237 568.689 406.683 567.139 406.683 565.557C406.683 561.529 403.447 558.295 399.419 558.295C397.594 558.295 395.803 558.982 394.462 560.256C393.118 561.495 392.327 563.181 392.188 565.007C392.085 566.211 392.981 567.14 394.116 567.244C394.22 567.244 394.186 567.278 394.288 567.278C395.356 567.278 396.251 566.418 396.355 565.316C396.492 563.698 397.801 562.459 399.419 562.459C401.175 562.459 402.517 563.801 402.517 565.557C402.517 568.104 400.004 570.41 397.525 572.716C396.251 573.921 395.046 575.022 394.048 576.261C392.842 577.844 392.223 579.394 392.188 580.874V581.011C392.188 582.147 393.118 583.076 394.255 583.076H404.583Z" fill="#FEFEFE"/>
<path d="M201.726 475.42C204.669 475.42 207.473 476.476 209.541 478.632C210.598 479.689 212.301 479.689 213.357 478.632C214.414 477.577 214.414 475.88 213.357 474.824C210.232 471.704 206.139 470.005 201.726 470.005C192.943 469.776 185.035 477.669 185.31 486.389C185.035 495.154 192.943 503.094 201.726 502.818C206.139 502.818 210.232 501.119 213.357 497.999C214.414 496.944 214.414 495.246 213.357 494.191C212.301 493.135 210.598 493.135 209.541 494.191C205.219 498.504 198.231 498.504 193.908 494.191C191.84 492.126 190.691 489.372 190.691 486.389C190.691 483.451 191.84 480.699 193.908 478.632C196.07 476.476 198.783 475.42 201.726 475.42ZM240.117 470.281C238.599 470.281 237.405 471.52 237.405 472.988V490.442C237.405 494.243 234.325 497.265 230.509 497.265C226.693 497.265 223.656 494.243 223.656 490.442V472.988C223.656 471.52 222.416 470.281 220.944 470.281C219.427 470.281 218.23 471.52 218.23 472.988V490.442C218.23 497.173 223.748 502.681 230.509 502.681C237.313 502.681 242.785 497.173 242.785 490.442V472.988C242.785 471.52 241.591 470.281 240.117 470.281ZM266.97 486.021C264.901 484.369 262.189 483.406 259.797 482.672C257.269 481.938 254.142 480.423 254.51 478.129C254.557 477.806 254.694 477.164 255.384 476.614C256.164 475.972 257.361 475.65 259.015 475.65C262.097 475.65 263.429 477.715 263.429 478.542C263.429 480.01 264.627 481.202 266.142 481.202C267.615 481.202 268.809 480.01 268.809 478.542C268.809 476.522 267.797 474.457 266.097 472.851C264.212 471.199 261.774 470.281 259.015 470.281C256.119 470.281 253.774 471.015 251.982 472.438C250.371 473.723 249.452 475.467 249.13 477.44C248.901 479.137 249.176 480.699 249.958 482.12C250.555 483.222 251.475 484.232 252.671 485.195C254.187 486.252 256.027 487.123 258.189 487.812C263.799 489.509 265.314 490.932 264.948 493.823C264.809 494.558 264.028 497.265 259.015 497.265C254.97 497.265 253.176 494.42 253.176 493.273V492.447C253.176 490.979 251.935 489.785 250.463 489.785C248.993 489.785 247.751 490.979 247.751 492.447V493.273C247.751 495.521 248.901 497.907 250.878 499.698C253.038 501.579 255.889 502.681 259.015 502.681C262.326 502.681 264.993 501.855 267.061 500.156C268.856 498.733 269.958 496.715 270.282 494.512C270.511 492.676 270.327 491.024 269.729 489.556C269.13 488.27 268.21 487.078 266.97 486.021ZM274.693 470.097C273.177 470.097 271.981 471.291 271.981 472.805C271.981 474.273 273.177 475.467 274.693 475.467H279.752C281.176 475.512 282.282 476.659 282.282 478.082V479.184H282.327V499.972C282.327 501.442 283.522 502.681 284.992 502.681C286.511 502.681 287.706 501.442 287.706 499.972V478.082C287.706 476.659 288.857 475.512 290.281 475.467H295.34C296.81 475.467 298.052 474.273 298.052 472.805C298.052 471.291 296.81 470.097 295.34 470.097H274.693ZM314.374 470.281C309.96 470.281 306.052 471.887 302.925 475.007C299.798 478.129 298.144 482.075 298.144 486.481C298.144 490.932 299.753 494.741 302.925 497.907C306.052 501.029 309.96 502.681 314.374 502.681C318.789 502.681 322.742 501.029 325.871 497.907C328.996 494.787 330.606 490.887 330.606 486.481C330.927 477.806 323.063 469.96 314.374 470.281ZM314.374 497.265C308.443 497.265 303.569 492.447 303.569 486.481C303.569 480.468 308.443 475.65 314.374 475.65C320.398 475.65 325.225 480.468 325.225 486.481C325.225 492.447 320.398 497.265 314.374 497.265ZM362.239 470.373C360.997 470.052 359.803 470.51 359.204 471.566L350.975 485.287C350.239 486.526 349.042 486.526 348.308 485.287L339.94 471.566C339.25 470.51 338.054 470.052 336.904 470.373C335.663 470.694 334.927 471.704 334.927 472.943V500.111C334.927 501.624 336.124 502.818 337.64 502.818C339.113 502.818 340.307 501.624 340.307 500.111V492.676H340.353V487.765C340.353 485.839 342.009 485.334 342.974 487.031L345.457 490.979L347.343 494.145C347.848 495.017 348.721 495.43 349.641 495.43H349.686C350.606 495.43 351.48 494.925 351.987 494.145L354.055 490.657L356.216 487.215C357.089 485.608 358.654 485.976 358.791 487.72V500.111C358.791 501.624 360.032 502.818 361.503 502.818C363.022 502.818 364.217 501.624 364.217 500.111V472.943C364.217 471.704 363.389 470.694 362.239 470.373ZM402.378 486.021C400.31 484.369 397.597 483.406 395.206 482.672C392.678 481.938 389.551 480.423 389.919 478.129C389.966 477.806 390.103 477.164 390.792 476.614C391.573 475.972 392.77 475.65 394.424 475.65C397.506 475.65 398.838 477.715 398.838 478.542C398.838 480.01 400.034 481.202 401.551 481.202C403.024 481.202 404.218 480.01 404.218 478.542C404.218 476.522 403.206 474.457 401.505 472.851C399.621 471.199 397.183 470.281 394.424 470.281C391.528 470.281 389.183 471.015 387.39 472.438C385.78 473.723 384.86 475.467 384.539 477.44C384.31 479.137 384.585 480.699 385.367 482.12C385.964 483.222 386.884 484.232 388.079 485.195C389.596 486.252 391.436 487.123 393.598 487.812C399.208 489.509 400.723 490.932 400.357 493.823C400.218 494.558 399.437 497.265 394.424 497.265C390.379 497.265 388.584 494.42 388.584 493.273V492.447C388.584 490.979 387.344 489.785 385.872 489.785C384.402 489.785 383.16 490.979 383.16 492.447V493.273C383.16 495.521 384.31 497.907 386.287 499.698C388.447 501.579 391.298 502.681 394.424 502.681C397.735 502.681 400.402 501.855 402.47 500.156C404.265 498.733 405.367 496.715 405.691 494.512C405.92 492.676 405.736 491.024 405.137 489.556C404.539 488.27 403.619 487.078 402.378 486.021ZM431.852 470.281C430.334 470.281 429.138 471.474 429.138 472.943V480.423C429.138 481.846 428.036 482.901 426.702 483.038H417.552C416.127 483.038 414.978 481.938 414.931 480.515V472.943C414.931 471.474 413.736 470.281 412.219 470.281C410.748 470.281 409.507 471.474 409.507 472.943V500.111C409.507 501.624 410.748 502.818 412.219 502.818C413.736 502.818 414.931 501.624 414.931 500.111V490.932C414.978 489.648 416.035 488.546 417.323 488.409H426.61C428.036 488.546 429.138 489.601 429.138 491.024V500.111C429.138 501.624 430.334 502.818 431.852 502.818C433.322 502.818 434.519 501.624 434.519 500.111V472.943C434.519 471.474 433.322 470.281 431.852 470.281ZM455.808 470.281C451.393 470.281 447.486 471.887 444.357 475.007C441.232 478.129 439.576 482.075 439.576 486.481C439.576 490.932 441.186 494.741 444.357 497.907C447.486 501.029 451.393 502.681 455.808 502.681C460.221 502.681 464.176 501.029 467.303 497.907C470.428 494.787 472.038 490.887 472.038 486.481C472.359 477.806 464.497 469.96 455.808 470.281ZM455.808 497.265C449.875 497.265 445.002 492.447 445.002 486.481C445.002 480.468 449.875 475.65 455.808 475.65C461.83 475.65 466.657 480.468 466.657 486.481C466.657 492.447 461.83 497.265 455.808 497.265ZM489.05 470.144H478.981C477.51 470.144 476.269 471.336 476.269 472.851V499.972C476.269 501.487 477.51 502.681 478.981 502.681C480.498 502.681 481.694 501.487 481.694 499.972V495.154C481.832 493.869 482.889 492.86 484.177 492.814H489.05C495.303 492.814 500.409 487.72 500.409 481.478C500.409 475.237 495.303 470.144 489.05 470.144ZM489.05 487.399H484.13C482.889 487.352 481.832 486.344 481.694 485.058V477.853C481.832 476.659 482.844 475.65 484.04 475.558H489.05C492.315 475.558 494.982 478.219 494.982 481.478C494.982 484.737 492.315 487.399 489.05 487.399Z" fill="#FEFEFE"/>
<path fill-rule="evenodd" clip-rule="evenodd" d="M392.464 216.402C392.464 200.259 401.323 186.182 414.446 178.768L418.383 179.476L422.973 190.908C422.887 190.95 422.802 190.994 422.717 191.037L423.735 192.802L427.806 202.933L421.363 191.779C419.735 192.73 418.208 193.839 416.805 195.084L429.919 208.195L431.537 212.223L429.646 212.462L411.225 201.829C410.245 203.474 409.427 205.225 408.792 207.061L429.176 212.522L425.128 213.033L408.328 208.532C407.797 210.385 407.452 212.312 407.308 214.297H415.123L392.471 217.16C392.467 216.908 392.464 216.655 392.464 216.402ZM429.76 188.532L424.237 174.733C427.879 173.737 431.715 173.205 435.674 173.205C459.538 173.205 478.885 192.545 478.885 216.402C478.885 240.26 459.538 259.6 435.674 259.6C414.763 259.6 397.32 244.749 393.325 225.022L408.849 223.061L408.074 223.267C408.567 225.245 409.265 227.139 410.147 228.93L423.53 221.205L427.478 220.706L410.865 230.294C411.869 232.08 413.059 233.746 414.41 235.267L429.19 220.489L431.686 220.174L415.465 236.391C416.913 237.853 418.517 239.16 420.252 240.283L431.879 220.15L438.617 219.299V219.296C439.368 219.164 439.971 218.628 440.399 217.778C440.811 216.962 440.852 216.151 440.55 215.485L438.103 209.372L448.692 191.037C447.045 190.193 445.305 189.503 443.493 188.989L438.059 209.26L437.102 206.873L441.998 188.608C440.215 188.205 438.369 187.97 436.475 187.92V205.305L434.932 201.453V187.92C433.164 187.967 431.435 188.176 429.76 188.532ZM428.752 243.98L434.932 220.923V244.826C432.807 244.769 430.738 244.479 428.752 243.98ZM433.443 220.524L427.267 243.566C425.265 242.945 423.356 242.108 421.568 241.085L433.443 220.524ZM441.562 215.839H464.17C464.173 216.016 464.174 216.194 464.174 216.373C464.174 218.215 463.999 220.016 463.665 221.76L441.562 215.839ZM464.1 214.297H441.562L463.081 208.532C463.61 210.385 463.957 212.312 464.1 214.297ZM450.044 191.779C451.674 192.73 453.2 193.839 454.602 195.084L439.3 210.383L450.044 191.779ZM459.357 200.526C458.294 198.944 457.079 197.475 455.728 196.139L440.39 211.473L459.357 200.526ZM460.183 201.829L441.162 212.808L462.617 207.061C461.98 205.225 461.162 203.474 460.183 201.829ZM463.333 223.267L441.162 217.329L461.261 228.93C462.142 227.139 462.841 225.245 463.333 223.267ZM412.052 200.526C413.113 198.944 414.33 197.475 415.679 196.139L431.017 211.473L412.052 200.526ZM440.39 218.664L460.542 230.294C459.54 232.08 458.348 233.746 456.998 235.267L440.39 218.664ZM455.944 236.391L439.3 219.754L451.155 240.283C452.891 239.16 454.495 237.853 455.944 236.391ZM437.964 220.524L449.839 241.085C448.052 242.108 446.144 242.945 444.14 243.566L437.964 220.524ZM436.475 244.826V220.923L442.655 243.98C440.669 244.479 438.602 244.769 436.475 244.826Z" fill="#FEFEFE"/>
<path fill-rule="evenodd" clip-rule="evenodd" d="M453.439 168.312C453.569 168.066 453.685 167.827 453.788 167.593C449.049 168.728 444.096 170.311 435.082 169.336C407.131 166.312 389.495 189.715 388.55 211.244C389.69 211.048 390.067 209.85 391.19 209.628C394.011 188.499 413.222 171.577 435.128 171.577C442.193 171.577 449.732 171.577 453.439 168.312Z" fill="#FEFEFE"/>
<path fill-rule="evenodd" clip-rule="evenodd" d="M235.266 212.671C234.153 214.724 234.634 217.274 236.418 218.782C238.792 220.788 242.409 220.12 243.912 217.399L246.584 212.561L267.119 207.061C266.483 205.225 265.665 203.474 264.685 201.829L246.815 212.144L248.258 209.532L263.859 200.526C262.798 198.944 261.581 197.475 260.232 196.139L250.011 206.356L252.701 201.487L259.105 195.084C258.471 194.521 257.809 193.984 257.124 193.478L264.271 180.539C275.802 188.296 283.387 201.463 283.387 216.402C283.387 240.26 264.042 259.6 240.178 259.6C216.313 259.6 196.967 240.26 196.967 216.402C196.967 192.545 216.313 173.205 240.178 173.205C245.459 173.205 250.521 174.153 255.199 175.886L248.086 189.015C248.056 189.005 248.025 188.996 247.995 188.989L247.894 189.367L244.734 195.197L246.501 188.608C244.717 188.207 242.871 187.97 240.978 187.92V202.129L239.436 204.975V187.92C237.542 187.97 235.697 188.207 233.913 188.608L238.676 206.378L237.607 208.35L232.418 188.989C230.606 189.503 228.866 190.193 227.219 191.037L237.419 208.698L236.556 210.288L225.867 191.779C224.237 192.73 222.711 193.839 221.308 195.086L236.543 210.315L235.266 212.671ZM233.256 243.98L239.436 220.923V244.826C237.309 244.769 235.242 244.479 233.256 243.98ZM237.946 220.524L231.771 243.566C229.767 242.945 227.858 242.108 226.072 241.085L237.946 220.524ZM224.754 240.283L236.611 219.754L219.969 236.391C221.416 237.853 223.02 239.16 224.754 240.283ZM235.521 218.664L218.913 235.267C217.562 233.746 216.371 232.08 215.369 230.294L235.521 218.664ZM214.65 228.93L234.749 217.329L212.578 223.267C213.07 225.245 213.768 227.139 214.65 228.93ZM234.349 215.839L212.246 221.76C211.912 220.016 211.737 218.215 211.737 216.373C211.737 216.194 211.738 216.016 211.741 215.839H234.349ZM246.064 215.839H268.673C268.675 216.016 268.678 216.194 268.678 216.373C268.678 218.215 268.503 220.016 268.168 221.76L246.064 215.839ZM268.602 214.298H246.064L267.583 208.532C268.114 210.385 268.459 212.312 268.602 214.298ZM234.349 214.298H211.811C211.954 212.312 212.301 210.385 212.83 208.534L234.349 214.298ZM215.728 201.829C214.749 203.474 213.93 205.225 213.294 207.061L234.749 212.808L215.728 201.829ZM267.836 223.267L245.664 217.329L265.763 228.93C266.645 227.139 267.343 225.245 267.836 223.267ZM216.554 200.526C217.617 198.944 218.833 197.475 220.183 196.139L235.521 211.473L216.554 200.526ZM244.894 218.664L265.044 230.294C264.042 232.08 262.852 233.746 261.501 235.267L244.894 218.664ZM260.446 236.391L243.802 219.754L255.659 240.283C257.394 239.16 258.998 237.853 260.446 236.391ZM242.468 220.524L254.341 241.085C252.554 242.11 250.646 242.945 248.644 243.566L242.468 220.524ZM240.978 244.826V220.923L247.158 243.98C245.173 244.479 243.104 244.769 240.978 244.826ZM237.292 218.458C235.579 217.286 235.031 215.01 236.023 213.188L268.048 154.389L274.757 158.973L243.124 217.053C241.978 219.155 239.269 219.807 237.292 218.458Z" fill="#FEFEFE"/>
<path fill-rule="evenodd" clip-rule="evenodd" d="M313.94 174.281L296.104 180.771L297.598 184.874L294.655 185.946L294.829 186.417L297.77 185.346L298.034 186.072L295.092 187.144L295.264 187.616L298.206 186.544L298.471 187.271L295.528 188.342L295.7 188.814L298.643 187.742L298.907 188.469L295.965 189.539L296.137 190.012L299.079 188.941L299.344 189.667L296.401 190.737L296.573 191.211L299.516 190.14L299.78 190.865L296.837 191.937L297.009 192.409L299.952 191.339L300.216 192.065L297.274 193.135L297.446 193.607L300.388 192.537L300.653 193.264L297.71 194.334L297.882 194.805L300.825 193.735L301.089 194.462L298.147 195.532L298.319 196.004L301.26 194.934L301.524 195.66L298.583 196.73L298.755 197.202L301.698 196.132L301.962 196.858L299.019 197.929L299.19 198.4L302.133 197.33L302.397 198.057L299.456 199.127L299.628 199.599L302.569 198.528L302.835 199.255L299.891 200.325L300.063 200.797L303.005 199.727L304.13 202.814L321.966 196.323L320.841 193.236L323.82 192.154L323.648 191.681L320.669 192.765L320.405 192.04L323.383 190.954L323.212 190.483L320.233 191.566L319.968 190.841L322.947 189.756L322.775 189.284L319.796 190.368L319.532 189.642L322.511 188.558L322.338 188.086L319.36 189.17L319.096 188.443L322.074 187.36L321.902 186.888L318.925 187.971L318.659 187.245L321.638 186.161L321.467 185.689L318.487 186.773L318.223 186.047L321.201 184.963L321.031 184.491L318.052 185.575L317.786 184.848L320.766 183.765L320.594 183.293L317.614 184.377L317.351 183.65L320.33 182.566L320.158 182.095L317.179 183.178L316.915 182.452L319.893 181.368L319.721 180.896L316.743 181.98L316.478 181.254L319.457 180.17L319.285 179.698L316.306 180.782L316.042 180.055L319.021 178.972L318.849 178.5L315.87 179.583L315.606 178.857L318.584 177.773L318.412 177.301L315.433 178.385L313.94 174.281ZM315.433 178.385L315.606 178.857L297.77 185.346L297.598 184.874L315.433 178.385ZM315.87 179.583L298.034 186.072L298.206 186.544L316.042 180.055L315.87 179.583ZM316.306 180.782L298.471 187.271L298.643 187.742L316.478 181.254L316.306 180.782ZM316.743 181.98L316.915 182.452L299.079 188.941L298.907 188.469L316.743 181.98ZM317.179 183.178L299.344 189.667L299.516 190.14L317.351 183.65L317.179 183.178ZM317.614 184.377L317.786 184.848L299.952 191.339L299.78 190.865L317.614 184.377ZM318.052 185.575L300.216 192.065L300.388 192.537L318.223 186.047L318.052 185.575ZM318.487 186.773L318.659 187.245L300.825 193.735L300.653 193.264L318.487 186.773ZM318.925 187.971L301.089 194.462L301.26 194.934L319.096 188.443L318.925 187.971ZM319.36 189.17L319.532 189.642L301.698 196.132L301.524 195.66L319.36 189.17ZM319.796 190.368L301.962 196.858L302.133 197.33L319.968 190.841L319.796 190.368ZM320.233 191.566L320.405 192.04L302.569 198.528L302.397 198.057L320.233 191.566ZM320.669 192.765L302.835 199.255L303.005 199.727L320.841 193.236L320.669 192.765Z" fill="#FEFEFE"/>
<path fill-rule="evenodd" clip-rule="evenodd" d="M304.13 202.814L321.966 196.323L323.696 213.79L314.323 217.199L304.13 202.814Z" fill="#FEFEFE"/>
<path d="M319.098 175.57L316.229 167.69L290.148 177.18L293.017 185.06L319.098 175.57Z" fill="#FEFEFE"/>
<path fill-rule="evenodd" clip-rule="evenodd" d="M353.235 180.758L335.399 174.267L333.907 178.372L330.964 177.3L330.792 177.773L333.735 178.843L333.469 179.57L330.528 178.498L330.356 178.972L333.297 180.042L333.034 180.768L330.091 179.697L329.919 180.17L332.862 181.24L332.596 181.967L329.655 180.895L329.483 181.368L332.424 182.438L332.161 183.165L329.219 182.093L329.047 182.566L331.989 183.637L331.725 184.363L328.782 183.291L328.61 183.765L331.553 184.835L331.288 185.561L328.346 184.491L328.174 184.963L331.116 186.033L330.852 186.76L327.909 185.689L327.737 186.161L330.68 187.231L330.416 187.958L327.473 186.888L327.301 187.36L330.243 188.43L329.979 189.156L327.037 188.086L326.866 188.558L329.807 189.628L329.543 190.354L326.602 189.284L326.428 189.756L329.371 190.826L329.106 191.553L326.165 190.483L325.993 190.954L328.936 192.026L328.67 192.751L325.727 191.681L325.557 192.153L328.498 193.224L327.375 196.31L345.21 202.8L346.334 199.713L349.312 200.797L349.484 200.325L346.505 199.241L346.77 198.515L349.749 199.599L349.921 199.127L346.942 198.043L347.206 197.317L350.185 198.4L350.357 197.929L347.379 196.845L347.643 196.118L350.621 197.202L350.793 196.73L347.815 195.647L348.079 194.92L351.058 196.004L351.23 195.532L348.251 194.448L348.516 193.722L351.494 194.805L351.666 194.334L348.686 193.25L348.952 192.523L351.931 193.607L352.103 193.135L349.124 192.05L349.387 191.325L352.367 192.409L352.539 191.937L349.559 190.852L349.825 190.125L352.802 191.211L352.974 190.737L349.997 189.654L350.26 188.927L353.24 190.012L353.412 189.539L350.432 188.455L350.696 187.729L353.675 188.813L353.847 188.341L350.868 187.257L351.133 186.531L354.111 187.614L354.284 187.142L351.305 186.059L351.569 185.334L354.548 186.416L354.72 185.944L351.741 184.86L353.235 180.758ZM351.741 184.86L351.569 185.334L333.735 178.843L333.907 178.372L351.741 184.86ZM351.305 186.059L333.469 179.57L333.297 180.042L351.133 186.531L351.305 186.059ZM350.868 187.257L333.034 180.768L332.862 181.24L350.696 187.729L350.868 187.257ZM350.432 188.455L350.26 188.927L332.424 182.438L332.596 181.967L350.432 188.455ZM349.997 189.654L332.161 183.165L331.989 183.637L349.825 190.125L349.997 189.654ZM349.559 190.852L349.387 191.325L331.553 184.835L331.725 184.363L349.559 190.852ZM349.124 192.05L331.288 185.561L331.116 186.033L348.952 192.523L349.124 192.05ZM348.686 193.25L348.516 193.722L330.68 187.231L330.852 186.76L348.686 193.25ZM348.251 194.448L330.416 187.958L330.243 188.43L348.079 194.92L348.251 194.448ZM347.815 195.647L347.643 196.118L329.807 189.628L329.979 189.156L347.815 195.647ZM347.379 196.845L329.543 190.354L329.371 190.826L347.206 197.317L347.379 196.845ZM346.942 198.043L346.77 198.515L328.936 192.026L329.106 191.553L346.942 198.043ZM346.505 199.241L328.67 192.751L328.498 193.224L346.334 199.713L346.505 199.241Z" fill="#FEFEFE"/>
<path fill-rule="evenodd" clip-rule="evenodd" d="M327.375 196.31L345.21 202.8L335.307 217.291L325.934 213.882L327.375 196.31Z" fill="#FEFEFE"/>
<path d="M356.358 185.06L359.227 177.179L333.146 167.689L330.277 175.57L356.358 185.06Z" fill="#FEFEFE"/>
<path fill-rule="evenodd" clip-rule="evenodd" d="M308.523 216.516C308.523 213.241 311.18 210.587 314.454 210.587H345.208V229.328H314.454C311.18 229.328 308.523 226.674 308.523 223.398V216.516Z" fill="#FEFEFE"/>
<path fill-rule="evenodd" clip-rule="evenodd" d="M355.355 232.382C362.218 232.382 367.783 226.818 367.783 219.957C367.783 213.095 362.218 207.533 355.355 207.533C348.492 207.533 342.927 213.095 342.927 219.957C342.927 226.818 348.492 232.382 355.355 232.382ZM355.355 229.213C360.468 229.213 364.612 225.068 364.612 219.957C364.612 214.846 360.468 210.701 355.355 210.701C350.241 210.701 346.096 214.846 346.096 219.957C346.096 225.068 350.241 229.213 355.355 229.213Z" fill="#FEFEFE"/>
<path d="M348.029 210.587H342.347V213.446H348.029V210.587Z" fill="#FEFEFE"/>
<path d="M347.604 226.469H341.921V229.328H347.604V226.469Z" fill="#FEFEFE"/>
<path fill-rule="evenodd" clip-rule="evenodd" d="M393.138 226.454H365.417V231.375H394.603C394.023 229.776 393.533 228.133 393.138 226.454ZM476.365 232.383H494.247V237.305H474.072C474.935 235.72 475.7 234.077 476.365 232.383ZM397.276 237.305C396.415 235.72 395.648 234.077 394.983 232.383H341.929V237.305H397.276ZM476.745 231.375C477.327 229.776 477.817 228.133 478.211 226.454H495.195V231.375H476.745Z" fill="#FEFEFE"/>
<path fill-rule="evenodd" clip-rule="evenodd" d="M365.417 231.375V226.454H363.994L359.367 231.375H365.417Z" fill="#FEFEFE"/>
<path fill-rule="evenodd" clip-rule="evenodd" d="M236.026 213.187C235.032 215.009 235.579 217.288 237.294 218.458C239.27 219.808 241.98 219.155 243.124 217.056L272.691 162.824H279.963L279.988 162.928L295.824 226.258L295.849 226.353L295.88 226.446C297.79 232.062 299.762 235.769 302.411 238.265C305.107 240.803 308.25 241.844 311.844 242.696L312.161 242.771L312.487 242.758L361.806 240.771L361.929 240.767L362.049 240.749C370.384 239.544 375.121 233.868 376.259 229.378C376.455 228.605 376.616 227.545 376.752 226.313L438.046 218.569L438.044 218.556C439.195 218.443 440.093 217.508 440.093 216.373C440.093 216.157 440.06 215.949 440.001 215.752L440.004 215.751L439.982 215.696C439.968 215.654 439.953 215.612 439.937 215.571C439.923 215.54 439.909 215.506 439.894 215.475L423.439 174.451L423.424 174.456L423.426 174.45L360.015 162.842C358.685 160.705 357.381 158.904 356.16 157.609C358.034 153.713 351.459 148.654 348.043 146.026H348.041V146.024C347.581 145.67 347.179 145.361 346.861 145.103C340.94 140.305 303.436 114.269 291.822 137.323C291.795 137.377 291.768 137.433 291.739 137.487H286.505L294.657 122.535L287.948 117.953L277.997 136.203H273.831V143.843L236.026 213.187ZM287.287 172.56L300.404 225.011C302.221 230.332 303.876 233.126 305.664 234.812C307.364 236.411 309.407 237.223 312.624 238.005L361.488 236.037C367.845 235.072 370.997 230.823 371.659 228.213C372.038 226.72 372.318 223.162 372.49 219.035C372.653 215.145 372.71 211.03 372.713 208.332C370.462 198.308 366.75 187.669 362.874 178.822C361.007 174.564 359.115 170.749 357.347 167.64L356.095 167.415L356.136 167.189L319.05 162.545C317.715 162.476 316.337 162.398 314.914 162.307L287.287 172.56ZM352.37 160.52C352.208 160.583 352.043 160.646 351.871 160.708L352.661 160.812C352.564 160.712 352.471 160.619 352.38 160.53L352.37 160.52ZM418.781 178.687L363.323 168.715C364.614 171.209 365.928 173.972 367.22 176.92C371.229 186.068 375.079 197.107 377.402 207.557L377.458 207.81V208.071C377.458 210.808 377.402 215.134 377.232 219.232C377.223 219.428 377.215 219.624 377.206 219.82L432.499 212.835L418.781 178.687ZM312.503 160.726C302.043 160.28 283.385 155.307 292.428 138.975C303.733 118.557 339.449 141.219 345.083 145.403C345.385 145.628 345.768 145.897 346.206 146.206C352.733 150.804 371.359 163.924 312.503 160.726Z" fill="#FEFEFE"/>
<path fill-rule="evenodd" clip-rule="evenodd" d="M294.348 139.142C285.544 153.285 302.721 157.932 312.408 158.486C370.568 162.468 347.375 148.796 343.015 145.601C337.897 141.852 305.352 121.463 294.348 139.142Z" fill="#FEFEFE"/>
<path d="M361.84 160.415C369.758 161.636 396.286 159.948 402.051 147.944" stroke="#FEFEFE" stroke-width="3" stroke-miterlimit="22.9256" stroke-linecap="round"/>
<path fill-rule="evenodd" clip-rule="evenodd" d="M390.195 166.099C390.015 166.063 389.872 166.01 389.774 165.941C389.442 165.705 389.655 165.824 390.195 166.099Z" fill="#FEFEFE" stroke="#FEFEFE" stroke-width="0.1" stroke-miterlimit="22.9256"/>
<path d="M391.498 156.788C391.678 156.664 392.504 156.127 392.684 156C392.743 156.195 392.652 156.74 391.822 157.364C391.104 157.903 390.689 158.092 390.52 158.134C391.389 158.005 393.162 157.839 393.77 158.143C394.55 158.533 394.55 158.922 394.55 159.117C394.55 159.312 394.308 159.9 394.084 160.061C393.77 160.286 392.017 161.26 390.264 161.455C388.51 161.65 390.468 161.811 391.433 161.65C392.601 161.455 394.355 160.676 395.134 160.676C395.913 160.676 396.108 160.87 396.303 161.065C396.498 161.26 396.373 161.87 396.174 162.039C395.719 162.429 395.524 162.835 393.77 163.208C392.017 163.582 390.458 163.793 389.484 163.793C388.315 163.793 392.379 164.271 392.684 164.298C393.576 164.377 396.108 164.377 396.498 164.572C396.744 164.695 397.082 164.962 396.693 165.351C396.303 165.741 396.019 165.878 395.134 166.131C393.77 166.52 391.238 166.52 390.264 166.52C391.433 167.105 394.55 167.494 395.329 167.494C396.498 167.494 397.592 167.764 396.887 168.468C395.913 169.442 395.653 169.248 393.576 169.637C391.498 170.027 391.301 169.832 391.043 169.637C390.836 169.481 390.784 169.116 390.784 168.953C391.183 169.888 397.862 168.274 395.719 168.079C391.951 168.139 390.719 167.248 389.29 166.52C388.992 166.369 389.234 166.09 389.417 166.108C392.176 166.38 396.985 165.329 395.551 164.996C395.008 164.87 391.501 164.635 389.575 164.298C388.83 164.168 387.926 163.988 388.005 163.606C388.121 163.403 388.32 163.411 388.51 163.403C389.669 163.357 391.995 163.443 394.437 162.236C396.703 160.982 395.595 161.204 393.808 161.563L393.808 161.563L393.808 161.563C392.236 161.879 390.137 162.301 389.346 161.916C388.367 161.44 388.702 161.354 389.701 161.099L389.701 161.099L389.701 161.099C390.428 160.914 391.505 160.64 392.684 160.061C395.487 158.685 392.681 158.473 390.386 158.753C388.309 159.006 389.789 157.977 391.498 156.788Z" fill="#FEFEFE"/>
<path fill-rule="evenodd" clip-rule="evenodd" d="M396.854 176.584C392.284 176.584 378.288 173.649 368.559 172.035C366.595 171.55 373.687 190.205 377.91 198.004C379.207 200.396 381.455 200.183 383.341 198.222C391.46 189.774 405.531 176.584 396.854 176.584Z" fill="#FEFEFE"/>
<path fill-rule="evenodd" clip-rule="evenodd" d="M258.958 129.681C266.807 130.516 282.119 133.949 280.573 141.012C279.027 148.075 265.518 151.363 258.958 152.124C257.464 149.313 257.271 136.356 258.958 129.681ZM261.052 130.027C260.417 134.065 259.525 144.075 261.055 151.8L262.219 151.569C260.728 144.047 261.598 134.198 262.223 130.211L261.052 130.027Z" fill="#FEFEFE"/>
<path d="M289.202 115.602C290.482 117.511 288.47 118.847 287.373 119.419L293.771 123.998C293.411 123.733 294.14 120.751 294.505 118.847C295.391 114.224 292.088 112.089 293.957 112.739C295.603 113.312 302.735 114.457 305.844 114.266C306.209 113.121 305.844 109.126 305.661 109.113C295.42 108.349 296.883 107.295 291.762 107.013C286.866 106.744 286.276 110.64 287.631 112.739C288.287 114.075 288.883 115.127 289.202 115.602Z" fill="#FEFEFE"/>
<path fill-rule="evenodd" clip-rule="evenodd" d="M294.241 218.797L293.5 203.12L316.039 240.122L306.283 238.727L294.241 218.797Z" fill="#FEFEFE"/>
<path d="M345.192 227.877H315.002V237.898H345.192V227.877Z" fill="#FEFEFE"/>
<path d="M90.8276 409.559C92.4606 409.559 93.8324 410.114 94.9428 411.224C96.0533 412.4 96.6085 413.772 96.6085 415.339C96.6085 416.777 96.1512 418.05 95.2368 419.161C94.8448 419.553 94.5182 419.847 94.257 420.043C91.9707 422.067 89.3579 423.635 86.4185 424.746C83.4791 425.921 80.3438 426.509 77.0124 426.509C73.3545 426.509 69.9252 425.823 66.7245 424.452C63.5891 423.08 60.8457 421.186 58.4942 418.769C56.1427 416.417 54.281 413.641 52.9093 410.44C51.5376 407.305 50.8517 403.941 50.8517 400.349V360.569C50.7864 359.719 50.5251 359.034 50.0679 358.511C49.676 357.923 49.2187 357.564 48.6962 357.433C48.1736 357.237 47.5857 357.335 46.9325 357.727C46.3446 358.054 45.8221 358.642 45.3648 359.491L40.7598 366.839L36.3507 374.384C35.8281 375.168 35.1096 375.821 34.1951 376.343C33.3459 376.801 32.4314 377.029 31.4516 377.029H31.3537C30.3739 377.029 29.4267 376.833 28.5122 376.441C27.6631 375.984 26.9772 375.298 26.4547 374.384L22.4375 367.525L17.1465 359.099C16.624 358.184 16.0361 357.564 15.3829 357.237C14.7297 356.911 14.1091 356.845 13.5213 357.041C12.9987 357.172 12.5415 357.564 12.1495 358.217C11.7576 358.805 11.5617 359.621 11.5617 360.667V371.15H11.4637V387.023C11.4637 388.656 10.9085 390.028 9.79802 391.138C8.68758 392.249 7.34851 392.804 5.78083 392.804C4.14783 392.804 2.77611 392.249 1.66566 391.138C0.555221 390.028 0 388.656 0 387.023V329.019C0 327.713 0.359261 326.569 1.07778 325.59C1.86162 324.544 2.90675 323.859 4.21315 323.532C5.45423 323.205 6.66265 323.271 7.83842 323.728C9.01418 324.185 9.96132 324.969 10.6798 326.08L28.5122 355.376C29.2961 356.747 30.2432 357.433 31.3537 357.433C32.4641 357.433 33.4112 356.747 34.1951 355.376L51.7335 326.08C52.3867 324.969 53.3012 324.185 54.477 323.728C55.6528 323.271 56.8938 323.205 58.2002 323.532C59.4413 323.859 60.4538 324.544 61.2376 325.59C62.0215 326.569 62.4134 327.713 62.4134 329.019L62.3154 400.349C62.3154 402.373 62.7073 404.268 63.4912 406.031C64.275 407.795 65.3201 409.33 66.6265 410.636C67.9329 412.008 69.468 413.053 71.2316 413.772C73.0606 414.556 74.9875 414.948 77.0124 414.948C80.801 414.948 83.969 413.772 86.5165 411.42C86.6472 411.29 86.7778 411.159 86.9084 411.028C87.0391 410.963 87.1697 410.865 87.3004 410.734C88.4108 409.951 89.5866 409.559 90.8276 409.559ZM108.264 323.532C112.967 323.532 117.376 324.381 121.491 326.08C125.671 327.778 129.427 330.293 132.759 333.624C136.09 336.955 138.605 340.711 140.303 344.892C142.001 349.007 142.851 353.416 142.851 358.119C142.851 362.822 142.001 367.231 140.303 371.346C138.605 375.462 136.09 379.185 132.759 382.516C129.427 385.847 125.671 388.395 121.491 390.159C117.376 391.857 112.967 392.706 108.264 392.706C103.56 392.706 99.1514 391.857 95.0362 390.159C90.921 388.395 87.1978 385.847 83.8665 382.516C77.0732 375.723 73.6765 367.59 73.6765 358.119C73.6765 353.416 74.5257 349.007 76.224 344.892C77.9876 340.711 80.5351 336.955 83.8665 333.624C87.1978 330.293 90.921 327.778 95.0362 326.08C99.1514 324.381 103.56 323.532 108.264 323.532ZM108.264 381.144C111.464 381.144 114.469 380.557 117.278 379.381C120.086 378.14 122.536 376.474 124.626 374.384C126.716 372.294 128.349 369.877 129.525 367.133C130.766 364.324 131.387 361.32 131.387 358.119C131.387 354.918 130.766 351.914 129.525 349.105C128.349 346.296 126.716 343.847 124.626 341.756C122.536 339.666 120.086 338.033 117.278 336.857C114.469 335.616 111.464 334.996 108.264 334.996C105.128 334.996 102.156 335.616 99.3473 336.857C96.5386 338.033 94.0891 339.666 91.9988 341.756C89.9086 343.847 88.2429 346.296 87.0018 349.105C85.8261 351.914 85.2382 354.918 85.2382 358.119C85.2382 361.32 85.8261 364.324 87.0018 367.133C88.2429 369.877 89.9086 372.294 91.9988 374.384C94.0891 376.474 96.5386 378.14 99.3473 379.381C102.156 380.557 105.128 381.144 108.264 381.144ZM194.778 323.14C196.345 323.14 197.684 323.695 198.795 324.806C199.971 325.916 200.559 327.288 200.559 328.921C200.559 330.489 199.971 331.828 198.795 332.938C197.684 334.049 196.345 334.604 194.778 334.604H184C182.498 334.669 181.191 335.257 180.081 336.367C179.036 337.413 178.513 338.686 178.513 340.189V386.925C178.513 388.493 177.958 389.865 176.847 391.04C175.737 392.151 174.365 392.706 172.732 392.706C171.165 392.706 169.825 392.151 168.715 391.04C167.605 389.865 167.049 388.493 167.049 386.925V342.54H166.951V340.189C166.951 338.686 166.429 337.413 165.384 336.367C164.339 335.257 163.065 334.669 161.562 334.604H150.785C149.152 334.604 147.78 334.049 146.669 332.938C145.559 331.828 145.004 330.489 145.004 328.921C145.004 327.288 145.559 325.916 146.669 324.806C147.78 323.695 149.152 323.14 150.785 323.14H194.778ZM235.427 323.532C240.13 323.532 244.539 324.381 248.655 326.08C252.835 327.778 256.591 330.293 259.922 333.624C263.254 336.955 265.768 340.711 267.467 344.892C269.165 349.007 270.014 353.416 270.014 358.119C270.014 362.822 269.165 367.231 267.467 371.346C265.768 375.462 263.254 379.185 259.922 382.516C256.591 385.847 252.835 388.395 248.655 390.159C244.539 391.857 240.13 392.706 235.427 392.706C230.724 392.706 226.315 391.857 222.2 390.159C218.085 388.395 214.362 385.847 211.03 382.516C204.237 375.723 200.84 367.59 200.84 358.119C200.84 353.416 201.689 349.007 203.388 344.892C205.151 340.711 207.699 336.955 211.03 333.624C214.362 330.293 218.085 327.778 222.2 326.08C226.315 324.381 230.724 323.532 235.427 323.532ZM235.427 381.144C238.628 381.144 241.633 380.557 244.441 379.381C247.25 378.14 249.7 376.474 251.79 374.384C253.88 372.294 255.513 369.877 256.689 367.133C257.93 364.324 258.551 361.32 258.551 358.119C258.551 354.918 257.93 351.914 256.689 349.105C255.513 346.296 253.88 343.847 251.79 341.756C249.7 339.666 247.25 338.033 244.441 336.857C241.633 335.616 238.628 334.996 235.427 334.996C232.292 334.996 229.32 335.616 226.511 336.857C223.702 338.033 221.253 339.666 219.163 341.756C217.072 343.847 215.407 346.296 214.166 349.105C212.99 351.914 212.402 354.918 212.402 358.119C212.402 361.32 212.99 364.324 214.166 367.133C215.407 369.877 217.072 372.294 219.163 374.384C221.253 376.474 223.702 378.14 226.511 379.381C229.32 380.557 232.292 381.144 235.427 381.144ZM419.224 410.147C420.007 411.649 420.138 413.217 419.616 414.85C419.093 416.483 418.08 417.691 416.578 418.475C410.83 421.414 405.082 423.668 399.334 425.235C393.585 426.868 387.478 427.685 381.011 427.685C377.811 427.685 374.381 427.489 370.723 427.097C366.086 426.64 361.546 425.562 357.104 423.864C352.728 422.165 348.547 420.043 344.563 417.495C340.578 414.948 336.822 412.041 333.295 408.775C329.833 405.574 326.632 402.21 323.693 398.683C321.537 396.135 319.578 393.653 317.814 391.236C316.05 388.82 314.483 386.599 313.111 384.574C311.805 382.549 310.694 380.785 309.78 379.283C308.931 377.715 308.31 376.507 307.918 375.658L307.82 375.364C307.689 375.102 307.526 374.808 307.33 374.482C307.134 374.09 306.84 373.731 306.448 373.404C306.056 373.077 305.501 372.816 304.783 372.62C304.13 372.359 303.248 372.228 302.137 372.228H295.964C294.527 372.228 293.254 372.751 292.143 373.796C291.098 374.776 290.576 376.017 290.576 377.519V387.709C290.576 389.342 290.02 390.746 288.91 391.922C287.799 393.033 286.395 393.588 284.697 393.588C283.064 393.588 281.692 393.033 280.582 391.922C279.471 390.746 278.916 389.342 278.916 387.709V328.921C278.916 327.288 279.471 325.916 280.582 324.806C281.692 323.695 283.064 323.14 284.697 323.14H306.448C309.845 323.14 313.013 323.793 315.952 325.1C318.957 326.341 321.57 328.072 323.791 330.293C326.012 332.514 327.775 335.126 329.082 338.131C330.388 341.07 331.041 344.239 331.041 347.635C331.041 351.554 330.192 355.147 328.494 358.413C326.861 361.679 324.673 364.455 321.929 366.741C320.492 367.917 319.806 369.093 319.872 370.269C320.002 371.379 320.296 372.326 320.753 373.11C323.497 377.748 326.665 382.418 330.258 387.121C333.85 391.824 337.802 396.135 342.113 400.055C346.424 403.974 351.062 407.272 356.026 409.951C361.056 412.629 366.412 414.262 372.095 414.85C373.597 414.98 375.035 415.078 376.406 415.144C377.843 415.274 379.28 415.339 380.717 415.339C385.29 415.339 389.993 414.784 394.827 413.674C399.66 412.563 405.049 410.506 410.993 407.501C411.842 407.044 412.79 406.815 413.835 406.815C414.945 406.815 415.99 407.076 416.97 407.599C417.95 408.187 418.701 409.036 419.224 410.147ZM306.448 360.569C308.212 360.569 309.878 360.242 311.445 359.589C313.013 358.87 314.385 357.923 315.561 356.747C316.736 355.572 317.651 354.2 318.304 352.632C318.957 351.064 319.284 349.399 319.284 347.635C319.284 345.872 318.957 344.206 318.304 342.638C317.651 341.07 316.736 339.731 315.561 338.621C314.385 337.445 313.013 336.531 311.445 335.878C309.878 335.159 308.212 334.8 306.448 334.8H295.769C294.462 334.93 293.319 335.453 292.339 336.367C291.359 337.282 290.772 338.392 290.576 339.699V355.278C290.576 356.78 291.098 358.054 292.143 359.099C293.188 360.079 294.429 360.569 295.867 360.569H306.448ZM373.136 334.506C370.001 334.506 366.996 335.094 364.122 336.269C361.313 337.38 358.766 339.078 356.48 341.364C354.259 343.585 352.56 346.133 351.385 349.007C350.209 351.816 349.621 354.788 349.621 357.923C349.621 361.124 350.209 364.161 351.385 367.035C352.56 369.844 354.259 372.359 356.48 374.58C358.766 376.866 361.346 378.597 364.22 379.773C367.159 380.948 370.131 381.536 373.136 381.536C376.141 381.536 379.08 380.948 381.954 379.773C384.894 378.597 387.507 376.866 389.793 374.58C390.903 373.469 392.242 372.914 393.81 372.914C395.443 372.914 396.815 373.469 397.925 374.58C399.036 375.69 399.591 377.062 399.591 378.695C399.591 380.263 399.036 381.602 397.925 382.712C394.594 386.043 390.805 388.591 386.559 390.355C382.314 392.118 377.839 393 373.136 393C368.433 393 363.959 392.118 359.713 390.355C355.467 388.591 351.678 386.043 348.347 382.712C345.016 379.381 342.501 375.592 340.803 371.346C339.039 367.101 338.157 362.626 338.157 357.923C338.157 353.22 339.039 348.778 340.803 344.598C342.501 340.352 345.016 336.563 348.347 333.232C351.678 329.901 355.467 327.353 359.713 325.59C363.959 323.826 368.433 322.944 373.136 322.944C377.839 322.944 382.314 323.826 386.559 325.59C390.805 327.353 394.594 329.901 397.925 333.232C399.036 334.343 399.591 335.714 399.591 337.347C399.591 338.915 399.036 340.254 397.925 341.364C396.815 342.475 395.443 343.03 393.81 343.03C392.242 343.03 390.903 342.475 389.793 341.364C387.572 339.078 385.024 337.38 382.15 336.269C379.276 335.094 376.272 334.506 373.136 334.506ZM531.054 295.118C531.185 296.62 530.728 297.959 529.682 299.135C528.637 300.311 527.331 300.931 525.763 300.997C525.437 301.062 525.143 301.095 524.881 301.095C524.685 301.029 524.457 300.964 524.196 300.899C520.015 300.049 515.769 299.56 511.458 299.429C507.147 299.233 502.869 299.364 498.623 299.821C493.789 300.343 489.445 301.519 485.591 303.348C481.737 305.177 478.243 307.398 475.107 310.011C471.972 312.558 469.163 315.367 466.681 318.437C464.264 321.507 462.076 324.544 460.117 327.549L445.224 350.183V350.281L440.814 356.845L439.835 358.805C439.312 359.981 439.018 361.32 438.953 362.822C438.953 364.324 438.953 365.729 438.953 367.035V387.023C438.953 388.591 438.398 389.963 437.287 391.138C436.177 392.249 434.805 392.804 433.172 392.804C431.604 392.804 430.265 392.249 429.155 391.138C428.044 389.963 427.489 388.591 427.489 387.023V367.035H427.391C427.391 365.729 427.358 364.324 427.293 362.822C427.293 361.32 427.032 359.981 426.509 358.805C426.379 358.544 426.248 358.25 426.117 357.923C425.987 357.596 425.823 357.27 425.627 356.943L409.265 332.154C408.35 330.848 408.056 329.444 408.383 327.941C408.71 326.373 409.526 325.132 410.832 324.218C412.139 323.303 413.576 323.009 415.144 323.336C416.711 323.663 417.952 324.479 418.867 325.786L426.999 338.229V338.131L430.429 343.324C431.147 344.5 431.964 345.153 432.878 345.284C433.793 345.414 434.642 345.055 435.426 344.206L454.238 315.988C454.434 315.661 454.63 315.367 454.826 315.106C455.022 314.779 455.25 314.453 455.511 314.126V314.028C455.773 313.701 456.001 313.407 456.197 313.146C456.393 312.82 456.622 312.493 456.883 312.166C459.104 309.227 461.456 306.483 463.938 303.936C466.485 301.323 469.327 299.07 472.462 297.175C479.451 292.93 487.518 290.088 496.663 288.651C500.778 287.933 504.632 287.639 508.225 287.769C511.883 287.835 515.41 288.063 518.807 288.455C520.048 288.586 521.289 288.782 522.53 289.043C523.771 289.239 525.045 289.5 526.351 289.827C527.658 290.023 528.735 290.611 529.584 291.59C530.499 292.57 530.989 293.746 531.054 295.118ZM500.3 334.506C497.165 334.506 494.16 335.094 491.286 336.269C488.477 337.38 485.929 339.078 483.643 341.364C481.422 343.585 479.724 346.133 478.548 349.007C477.373 351.816 476.785 354.788 476.785 357.923C476.785 361.124 477.373 364.161 478.548 367.035C479.724 369.844 481.422 372.359 483.643 374.58C485.929 376.866 488.51 378.597 491.384 379.773C494.323 380.948 497.295 381.536 500.3 381.536C503.305 381.536 506.244 380.948 509.118 379.773C512.058 378.597 514.67 376.866 516.957 374.58C518.067 373.469 519.406 372.914 520.974 372.914C522.607 372.914 523.978 373.469 525.089 374.58C526.199 375.69 526.755 377.062 526.755 378.695C526.755 380.263 526.199 381.602 525.089 382.712C521.758 386.043 517.969 388.591 513.723 390.355C509.477 392.118 505.003 393 500.3 393C495.597 393 491.122 392.118 486.877 390.355C482.631 388.591 478.842 386.043 475.511 382.712C472.18 379.381 469.665 375.592 467.966 371.346C466.203 367.101 465.321 362.626 465.321 357.923C465.321 353.22 466.203 348.778 467.966 344.598C469.665 340.352 472.18 336.563 475.511 333.232C478.842 329.901 482.631 327.353 486.877 325.59C491.122 323.826 495.597 322.944 500.3 322.944C505.003 322.944 509.477 323.826 513.723 325.59C517.969 327.353 521.758 329.901 525.089 333.232C526.199 334.343 526.755 335.714 526.755 337.347C526.755 338.915 526.199 340.254 525.089 341.364C523.978 342.475 522.607 343.03 520.974 343.03C519.406 343.03 518.067 342.475 516.957 341.364C514.736 339.078 512.188 337.38 509.314 336.269C506.44 335.094 503.435 334.506 500.3 334.506ZM675.658 409.657C676.508 411.094 676.704 412.596 676.246 414.164C675.854 415.797 674.907 417.038 673.405 417.887C673.34 417.952 673.242 417.985 673.111 417.985C672.98 418.05 672.85 418.148 672.719 418.279C671.609 418.997 669.943 419.945 667.722 421.12C665.501 422.296 662.627 423.439 659.1 424.55C652.829 426.509 646.134 427.489 639.014 427.489C636.597 427.489 634.18 427.391 631.763 427.195C627.126 426.738 622.782 425.856 618.732 424.55C614.682 423.243 610.861 421.676 607.268 419.847C603.676 418.018 600.246 416.025 596.98 413.87C593.78 411.714 590.71 409.591 587.77 407.501C585.027 405.541 582.349 403.68 579.736 401.916C577.123 400.218 574.51 398.716 571.897 397.409C569.285 396.103 566.639 395.058 563.961 394.274C561.283 393.49 558.507 393.098 555.633 393.098H549.754V393H544.855C542.111 393 539.825 392.281 537.996 390.844C536.233 389.342 535.351 387.48 535.351 385.26V329.215C535.351 327.647 535.906 326.308 537.016 325.198C538.127 324.087 539.499 323.532 541.132 323.532C542.699 323.532 544.038 324.087 545.149 325.198C546.259 326.308 546.814 327.647 546.814 329.215V375.951C546.814 377.454 547.337 378.728 548.382 379.773C549.427 380.818 550.701 381.373 552.203 381.438H556.808L556.906 381.536C560.238 381.602 563.536 382.026 566.802 382.81C570.068 383.529 573.432 384.737 576.894 386.435C580.03 387.938 583.034 389.701 585.909 391.726C588.848 393.686 591.755 395.678 594.629 397.703C597.438 399.663 600.279 401.59 603.153 403.484C606.092 405.443 609.097 407.207 612.167 408.775C615.303 410.408 618.569 411.78 621.965 412.89C625.427 414.066 629.085 414.817 632.939 415.144C637.642 415.601 641.855 415.568 645.578 415.046C649.367 414.588 652.666 413.935 655.474 413.086C658.283 412.237 660.569 411.322 662.333 410.342C664.162 409.363 665.534 408.579 666.448 407.991C666.71 407.86 667.036 407.664 667.428 407.403C668.93 406.554 670.465 406.358 672.033 406.815C673.601 407.272 674.809 408.22 675.658 409.657ZM625.089 381.438C626.722 381.438 628.094 382.026 629.204 383.202C630.315 384.312 630.87 385.651 630.87 387.219C630.87 388.852 630.315 390.224 629.204 391.334C628.094 392.445 626.722 393 625.089 393H594.323C591.58 393 589.326 392.281 587.563 390.844C585.799 389.342 584.917 387.48 584.917 385.26V331.272C584.917 329.052 585.799 327.223 587.563 325.786C589.326 324.283 591.58 323.532 594.323 323.532H624.795C626.428 323.532 627.8 324.087 628.91 325.198C630.021 326.308 630.576 327.647 630.576 329.215C630.576 330.848 630.021 332.22 628.91 333.33C627.8 334.441 626.428 334.996 624.795 334.996H601.672C600.17 335.126 598.896 335.714 597.851 336.759C596.871 337.804 596.381 339.078 596.381 340.581V345.088C596.381 346.655 596.936 347.994 598.047 349.105C599.157 350.15 600.463 350.673 601.966 350.673H602.456L602.554 350.771H617.545C619.178 350.771 620.549 351.326 621.66 352.436C622.77 353.547 623.325 354.918 623.325 356.551C623.325 358.119 622.77 359.458 621.66 360.569C620.549 361.679 619.178 362.234 617.545 362.234H601.574C600.072 362.365 598.83 362.953 597.851 363.998C596.871 365.043 596.381 366.317 596.381 367.819V375.853C596.381 377.421 596.936 378.76 598.047 379.871C599.157 380.916 600.463 381.438 601.966 381.438H625.089ZM679.26 357.139C681.938 359.425 683.898 361.94 685.139 364.684C686.38 367.819 686.772 371.346 686.315 375.266C685.988 377.617 685.237 379.838 684.061 381.928C682.885 384.018 681.35 385.815 679.456 387.317C675.079 390.91 669.364 392.706 662.309 392.706C658.978 392.706 655.81 392.151 652.805 391.04C649.866 389.93 647.253 388.362 644.967 386.337C642.877 384.443 641.244 382.287 640.068 379.871C638.892 377.454 638.304 375.037 638.304 372.62V370.856C638.304 369.289 638.859 367.95 639.97 366.839C641.146 365.729 642.517 365.174 644.085 365.174C645.653 365.174 646.992 365.729 648.102 366.839C649.278 367.95 649.866 369.289 649.866 370.856V372.62C649.866 373.208 650.095 373.992 650.552 374.972C651.074 375.951 651.826 376.899 652.805 377.813C653.85 378.728 655.157 379.511 656.725 380.165C658.292 380.818 660.154 381.144 662.309 381.144C664.988 381.144 667.143 380.85 668.776 380.263C670.409 379.609 671.65 378.891 672.499 378.107C673.414 377.258 674.034 376.441 674.361 375.658C674.688 374.808 674.884 374.188 674.949 373.796C675.145 372.228 675.047 370.856 674.655 369.681C674.328 368.505 673.61 367.427 672.499 366.447C671.389 365.468 669.854 364.553 667.894 363.704C666 362.789 663.55 361.875 660.546 360.96C655.908 359.523 651.989 357.662 648.788 355.376C646.241 353.351 644.314 351.162 643.007 348.811C641.309 345.806 640.721 342.475 641.244 338.817C641.57 336.727 642.223 334.767 643.203 332.938C644.248 331.109 645.62 329.509 647.318 328.137C651.172 325.067 656.169 323.532 662.309 323.532C665.249 323.532 667.992 324.022 670.54 325.002C673.087 325.916 675.373 327.255 677.398 329.019C679.227 330.717 680.632 332.644 681.611 334.8C682.657 336.89 683.179 339.013 683.179 341.168C683.179 342.736 682.624 344.075 681.514 345.186C680.403 346.296 679.064 346.851 677.496 346.851C675.863 346.851 674.492 346.296 673.381 345.186C672.271 344.075 671.715 342.736 671.715 341.168C671.715 340.711 671.52 340.156 671.128 339.503C670.801 338.784 670.246 338.098 669.462 337.445C668.678 336.792 667.698 336.237 666.523 335.78C665.347 335.257 663.942 334.996 662.309 334.996C658.782 334.996 656.202 335.682 654.569 337.053C653.85 337.641 653.361 338.262 653.099 338.915C652.903 339.503 652.773 339.96 652.707 340.287C652.511 341.528 652.74 342.671 653.393 343.716C654.046 344.696 654.928 345.61 656.039 346.459C657.149 347.243 658.39 347.929 659.762 348.517C661.199 349.105 662.603 349.595 663.975 349.987C666.523 350.771 669.135 351.718 671.813 352.828C674.557 353.939 677.039 355.376 679.26 357.139Z" fill="white"/>
</svg>
