<svg width="871" height="137" viewBox="0 0 871 137" fill="none" xmlns="http://www.w3.org/2000/svg">
<path d="M34.587 34.532C25.1809 34.532 16.8526 37.9613 10.1899 44.624C3.52729 51.2867 0 59.713 0 69.1191C0 78.6231 3.42931 86.7555 10.1899 93.5161C16.8526 100.179 25.1809 103.706 34.587 103.706C43.9931 103.706 52.4194 100.179 59.0821 93.5161C65.7447 86.8535 69.174 78.5251 69.174 69.1191C69.8599 50.6008 53.1053 33.8462 34.587 34.532ZM34.587 92.1444C21.9476 92.1444 11.5617 81.8565 11.5617 69.1191C11.5617 56.2836 21.9476 45.9957 34.587 45.9957C47.4224 45.9957 57.7103 56.2836 57.7103 69.1191C57.7103 81.8565 47.4224 92.1444 34.587 92.1444ZM109.527 45.5058C115.798 45.5058 121.775 47.7594 126.184 52.3644C128.437 54.618 132.063 54.618 134.316 52.3644C136.57 50.1109 136.57 46.4856 134.316 44.2321C127.654 37.5694 118.933 33.9442 109.527 33.9442C90.8131 33.4543 73.9605 50.3068 74.5484 68.9231C73.9605 87.6373 90.8131 104.588 109.527 104C118.933 104 127.654 100.375 134.316 93.7121C136.57 91.4585 136.57 87.8333 134.316 85.5797C132.063 83.3262 128.437 83.3262 126.184 85.5797C116.974 94.7899 102.081 94.7899 92.8707 85.5797C88.4616 81.1706 86.0121 75.2918 86.0121 68.9231C86.0121 62.6524 88.4616 56.7735 92.8707 52.3644C97.4758 47.7594 103.257 45.5058 109.527 45.5058ZM229.919 6.80364C225.314 2.78646 219.337 0.336946 212.674 0.336946C198.173 0.336946 186.514 12.0946 186.514 26.4977V57.2634C186.22 60.0069 184.064 61.9665 181.321 62.2604H161.823C158.785 62.2604 156.336 59.9089 156.238 56.8715V40.7048C156.238 37.5694 153.69 35.0219 150.457 35.0219C147.322 35.0219 144.676 37.5694 144.676 40.7048V98.7091C144.676 101.942 147.322 104.49 150.457 104.49C153.69 104.49 156.238 101.942 156.238 98.7091V79.113C156.336 76.3696 158.589 74.0181 161.333 73.7241H181.125C184.162 74.0181 186.514 76.2716 186.514 79.309V98.7091C186.514 101.942 189.061 104.49 192.295 104.49C195.43 104.49 197.977 101.942 197.977 98.7091V26.4977C197.977 18.3653 204.542 11.8986 212.674 11.8986C216.3 11.8986 219.533 13.0744 222.179 15.3279C222.276 15.5239 222.57 15.7198 222.962 16.0138C224.04 16.8956 225.216 17.2875 226.49 17.2875C229.625 17.2875 232.27 14.6421 232.27 11.5067C232.27 10.037 231.781 8.76325 230.801 7.68547L229.919 6.80364ZM243.178 34.532C233.772 34.532 225.443 37.9613 218.781 44.624C212.118 51.2867 208.591 59.713 208.591 69.1191C208.591 78.6231 212.02 86.7555 218.781 93.5161C225.443 100.179 233.772 103.706 243.178 103.706C252.584 103.706 261.01 100.179 267.673 93.5161C274.335 86.8535 277.765 78.5251 277.765 69.1191C278.451 50.6008 261.696 33.8462 243.178 34.532ZM243.178 92.1444C230.538 92.1444 220.152 81.8565 220.152 69.1191C220.152 56.2836 230.538 45.9957 243.178 45.9957C256.013 45.9957 266.301 56.2836 266.301 69.1191C266.301 81.8565 256.013 92.1444 243.178 92.1444ZM330.757 64.514C332.815 61.4766 333.795 57.9493 333.795 54.1281C333.795 43.3503 325.075 34.63 314.297 34.63H292.447C289.312 34.63 286.764 37.1775 286.764 40.4108V98.2192C286.764 101.453 289.312 104 292.447 104H321.057C332.423 104 341.927 94.4959 341.927 83.0322C341.927 74.8019 337.42 68.0413 330.757 64.514ZM322.331 54.1281C322.331 58.5372 318.706 62.0645 314.297 62.0645H302.441C300.09 62.0645 298.228 59.517 298.228 56.4796V51.6786C298.228 48.6412 300.775 46.0937 303.813 46.0937H314.297C318.706 46.0937 322.331 49.719 322.331 54.1281ZM303.813 92.4383C300.775 92.4383 298.228 89.9888 298.228 86.9514V79.211C298.228 76.0756 300.09 73.6261 302.441 73.6261H321.057C326.25 73.6261 330.463 77.8393 330.463 83.0322C330.463 88.2252 326.25 92.4383 321.057 92.4383H303.813ZM492.584 119.481C491.114 116.737 487.783 115.562 485.039 117.031C469.657 124.87 458.193 125.752 445.847 124.478C418.903 121.636 405.382 102.53 396.269 79.407L392.252 68.2372C391.86 67.1594 391.566 66.0817 391.272 65.1998L390.685 64.0241L381.572 38.7452C380.691 36.4916 378.535 35.0219 376.183 35.0219C373.734 35.0219 371.578 36.4916 370.697 38.8432L349.827 96.7495C348.749 99.7869 350.219 103.118 353.256 104.196C353.844 104.392 354.53 104.49 355.216 104.49C357.567 104.49 359.723 103.02 360.605 100.669L362.368 95.7697C363.446 93.1242 366.679 90.8707 369.717 90.8707H383.924C386.961 90.8707 389.607 92.8303 391.076 95.2798C393.526 100.081 396.171 104.882 399.601 109.291C404.794 116.346 410.868 122.126 417.923 126.633C425.859 131.63 434.776 134.668 444.672 135.648C448.199 136.04 451.53 136.235 454.666 136.235C458.879 136.235 462.896 135.942 466.521 135.256C474.36 133.982 482.002 131.238 490.232 127.025C492.976 125.556 494.054 122.224 492.584 119.481ZM373.93 79.407C370.795 79.407 369.129 77.1534 370.207 74.116L374.224 62.9463C375.302 59.9089 376.967 59.9089 378.045 62.9463L382.16 74.116C383.238 77.1534 381.572 79.407 378.437 79.407H373.93ZM456.856 34.532C453.622 34.532 451.075 37.0795 451.075 40.2149V56.1857C451.075 59.223 448.723 61.4766 445.882 61.7705H426.384C423.346 61.7705 420.897 59.419 420.799 56.3816V40.2149C420.799 37.0795 418.251 34.532 415.018 34.532C411.883 34.532 409.237 37.0795 409.237 40.2149V98.2192C409.237 101.453 411.883 104 415.018 104C418.251 104 420.799 101.453 420.799 98.2192V78.6231C420.897 75.8797 423.15 73.5282 425.894 73.2342H445.686C448.723 73.5282 451.075 75.7817 451.075 78.8191V98.2192C451.075 101.453 453.622 104 456.856 104C459.991 104 462.538 101.453 462.538 98.2192V40.2149C462.538 37.0795 459.991 34.532 456.856 34.532ZM541.052 34.4341C537.819 34.4341 535.271 36.9815 535.271 40.2149V98.2192C535.271 101.453 537.819 104 541.052 104C544.187 104 546.833 101.453 546.833 98.2192V40.2149C546.833 36.9815 544.187 34.4341 541.052 34.4341ZM507.641 61.9665H489.71C487.065 61.6726 485.007 59.517 484.811 56.8715V40.2149C484.811 36.9815 482.264 34.4341 479.031 34.4341C475.895 34.4341 473.25 36.9815 473.25 40.2149V98.2192C473.25 101.453 475.895 104 479.031 104H507.641C519.3 104 528.706 94.5939 528.706 83.0322C528.706 71.3726 519.3 61.9665 507.641 61.9665ZM507.641 92.5363H489.808C487.065 92.2424 485.007 89.9888 484.811 87.3434V78.6231C485.007 75.8797 487.261 73.6261 490.004 73.5282H507.641C512.932 73.5282 517.145 77.7413 517.145 83.0322C517.145 88.2252 512.932 92.5363 507.641 92.5363ZM628.717 64.514C630.774 61.4766 631.754 57.9493 631.754 54.1281C631.754 43.3503 623.034 34.63 612.256 34.63H590.406C587.271 34.63 584.724 37.1775 584.724 40.4108V98.2192C584.724 101.453 587.271 104 590.406 104H619.017C630.382 104 639.886 94.4959 639.886 83.0322C639.886 74.8019 635.379 68.0413 628.717 64.514ZM620.29 54.1281C620.29 58.5372 616.665 62.0645 612.256 62.0645H600.4C598.049 62.0645 596.187 59.517 596.187 56.4796V51.6786C596.187 48.6412 598.735 46.0937 601.772 46.0937H612.256C616.665 46.0937 620.29 49.719 620.29 54.1281ZM601.772 92.4383C598.735 92.4383 596.187 89.9888 596.187 86.9514V79.211C596.187 76.0756 598.049 73.6261 600.4 73.6261H619.017C624.21 73.6261 628.423 77.8393 628.423 83.0322C628.423 88.2252 624.21 92.4383 619.017 92.4383H601.772ZM711.846 103.706C715.275 103.706 717.823 101.061 717.823 97.8272C717.823 94.3979 715.275 91.8505 711.846 91.8505H694.797C692.936 91.4585 692.642 89.9888 693.524 89.107L705.183 77.9373C709.201 73.9201 711.944 70.5888 714.002 67.1594C716.549 62.7503 717.823 58.3412 717.823 53.8341C717.823 42.3705 708.613 33.1603 697.149 33.1603C691.956 33.1603 686.861 35.1199 683.04 38.7452C679.219 42.2725 676.965 47.0735 676.573 52.2665C676.279 55.6958 678.827 58.3412 682.06 58.6352C682.354 58.6352 682.256 58.7331 682.55 58.7331C685.587 58.7331 688.135 56.2836 688.429 53.1483C688.821 48.5432 692.544 45.0159 697.149 45.0159C702.146 45.0159 705.967 48.8371 705.967 53.8341C705.967 61.0847 698.815 67.6493 691.76 74.214C688.135 77.6433 684.705 80.7787 681.864 84.306C678.435 88.8131 676.671 93.2222 676.573 97.4353V97.8272C676.573 101.061 679.219 103.706 682.452 103.706H711.846ZM748.185 103.902C760.433 103.902 770.525 93.8101 770.525 81.5625V56.4796C770.525 44.2321 760.433 34.2381 748.185 34.2381C735.938 34.2381 725.846 44.2321 725.846 56.4796V81.5625C725.846 93.8101 735.938 103.902 748.185 103.902ZM748.185 46.0937C753.966 46.0937 758.571 50.7968 758.571 56.4796V81.5625C758.571 87.2454 753.966 91.9484 748.185 91.9484C742.404 91.9484 737.701 87.2454 737.701 81.5625V56.4796C737.701 50.7968 742.404 46.0937 748.185 46.0937ZM815.28 103.706C818.71 103.706 821.257 101.061 821.257 97.8272C821.257 94.3979 818.71 91.8505 815.28 91.8505H798.232C796.37 91.4585 796.076 89.9888 796.958 89.107L808.618 77.9373C812.635 73.9201 815.378 70.5888 817.436 67.1594C819.983 62.7503 821.257 58.3412 821.257 53.8341C821.257 42.3705 812.047 33.1603 800.583 33.1603C795.39 33.1603 790.295 35.1199 786.474 38.7452C782.653 42.2725 780.399 47.0735 780.007 52.2665C779.713 55.6958 782.261 58.3412 785.494 58.6352C785.788 58.6352 785.69 58.7331 785.984 58.7331C789.022 58.7331 791.569 56.2836 791.863 53.1483C792.255 48.5432 795.978 45.0159 800.583 45.0159C805.58 45.0159 809.401 48.8371 809.401 53.8341C809.401 61.0847 802.249 67.6493 795.194 74.214C791.569 77.6433 788.14 80.7787 785.298 84.306C781.869 88.8131 780.105 93.2222 780.007 97.4353V97.8272C780.007 101.061 782.653 103.706 785.886 103.706H815.28ZM864.749 103.706C868.178 103.706 870.725 101.061 870.725 97.8272C870.725 94.3979 868.178 91.8505 864.749 91.8505H847.7C845.839 91.4585 845.545 89.9888 846.426 89.107L858.086 77.9373C862.103 73.9201 864.847 70.5888 866.904 67.1594C869.452 62.7503 870.725 58.3412 870.725 53.8341C870.725 42.3705 861.515 33.1603 850.052 33.1603C844.859 33.1603 839.764 35.1199 835.943 38.7452C832.121 42.2725 829.868 47.0735 829.476 52.2665C829.182 55.6958 831.729 58.3412 834.963 58.6352C835.257 58.6352 835.159 58.7331 835.453 58.7331C838.49 58.7331 841.037 56.2836 841.331 53.1483C841.723 48.5432 845.447 45.0159 850.052 45.0159C855.049 45.0159 858.87 48.8371 858.87 53.8341C858.87 61.0847 851.717 67.6493 844.663 74.214C841.037 77.6433 837.608 80.7787 834.767 84.306C831.337 88.8131 829.574 93.2222 829.476 97.4353V97.8272C829.476 101.061 832.121 103.706 835.355 103.706H864.749Z" fill="white"/>
</svg>
